<?xml version="1.0" encoding="UTF-8"?>
<svg id="Layer_1" data-name="Layer 1" xmlns="http://www.w3.org/2000/svg" xmlns:xlink="http://www.w3.org/1999/xlink" viewBox="0 0 750 750">
  <defs>
    <style>
      .cls-1 {
        fill: #fff;
      }

      .cls-2 {
        fill: url(#New_Gradient_Swatch_1);
        filter: url(#drop-shadow-1);
      }
    </style>
    <linearGradient id="New_Gradient_Swatch_1" data-name="New Gradient Swatch 1" x1="46.5737" y1="375" x2="703.4263" y2="375" gradientUnits="userSpaceOnUse">
      <stop offset="0" stop-color="#cce0f4" stop-opacity="0"/>
      <stop offset=".9944" stop-color="#005b97" stop-opacity="0"/>
    </linearGradient>
    <filter id="drop-shadow-1" x="46.5737" y="46.5736" width="663.8525" height="663.8528" filterUnits="userSpaceOnUse">
      <feOffset dx="7" dy="7"/>
      <feGaussianBlur result="blur" stdDeviation="0"/>
      <feFlood flood-color="#000" flood-opacity=".25"/>
      <feComposite in2="blur" operator="in"/>
      <feComposite in="SourceGraphic"/>
    </filter>
  </defs>
  <path class="cls-1" d="M288.9686,139.0009l-.3125.5938h1.5l-1.1875-.5938ZM187.5936,181.5009l-2.0625,2.0625,2.5-2.2812-.4375.2188ZM192.6561,177.0322l-4.625,4.25.1562-.0938,4.4688-4.1562ZM193.2499,176.4384l-.2812.3125,1.5312-1.3125-1.25,1ZM279.876,446.1569l.4146-.4143-.8486-.8496-.233.2329h-1.5527l-5.0312,5.9688-10.4062,2.375-3.2812,3.8438-.9062,5.5625-.2812.0936-2.6875,2.0938-5.625,1.7812-5.375-1.1875-.5438.4662-.4829-.2332-.3398.7021.1763.0851-2.9659,2.5422-3.25.2812-3.2812,4.75-3.6561.9686.0935-.0623-.9062.2812.8125-.2188-6.7499,5.2811-.5829,1.6104-.0649.0197-1.0664,2.1343.6982.3481.3372-.6753.6497-.1934,1.2167,4.1937-2.0625,2.0938.5938,6.8125-2.1403,3.559-.1941.0173-1.501,1.1255.4678.624.3062-.2295-.5011.8412-4.1875,1.2188,2.9688,5.0312-.0914.5791-.3884-.1849-.334.7051.2689.1274-.1503.188-.1798-.2272-.2635.7817-.0779.0973-.5388-.147-.2051.7524.5354.1461-.3563,1.0569,2.0938,1.1875-.5293-.15-1.8011-.6301-.2578.7363,2.7896.9712.3925.2601h-1.5l1.8125,1.5-.3125.5938,3.875,1.4688-2.375-.5938,1.7812,1.5h-2.0938l.9062,1.7812,1.1875-.3125-.223.3405-.6406.5122.4863.6094.5189-.415.7334.1405.5938,3.2812,1.5,1.4688,2.9688,1.5-2.9688-1.4688,1.7812,1.7812-.9062.2812,1.5,1.5.0453.4786-.533.1333.1885.7568.4189-.1047.1615,1.7047,1.1875.5938-1.7812-.5938,2.9688,3.8438-.2812.9062,3.6677,3.2375-.3292.1464.3164.7124.6555-.2914.7521.6638,9.5,10.6875,4.442,3.1259-.1523.7625.7646.1528.0947-.4739,5.5385.3077,8.9375,2.6562,3.4978,1.9264-.1427.4272,1.6309.5439.0427-.1282.0849.0468,14.4358-113.217-2.3306-.4427-1.3427-3.1565ZM230.6874,530.157l-2.375-1.1875v-.0311l2.375,1.1875v.0311ZM229.2684,505.9416l1.4189,1.903.339.7692-1.7579-2.6721ZM252.4061,540.2509l.0997.0488.0026.0032-.1023-.052ZM254.1874,541.157l-1.202-.6115.0255.0023,1.1765.578v.0311ZM258.6249,553.0322l-1.7812-2.0938,1.7812-1.7812-1.1875,1.7812.5938.9062,1.1875-.3125-.5938,1.5ZM259.8436,543.5322l-1.8125-.9062,1.8125.875h.3668l.0269.0312h-.3937ZM261.8477,544.2248l-.0095-.0112.3805.1936-.371-.1824ZM266.6561,527.4697l-.2812-1.7812,1.1875,2.0938-.9062-.3125ZM354.9374,129.7822l-2.0625.875,2.375-.2812-.3125-.5938ZM296.0936,136.6259l2.0625-.5938v1.7812l.9062-1.7812v.875l2.6875-.5938-3.2812-.875-5.3438.875,3.5625-.2812-.5938.5938ZM309.1561,138.6884l-2.0625-1.1875.875,1.1875h1.1875ZM314.5311,139.0009l-2.0938.2812v.3125l3.5625-.9062-2.375-.5938.5938.5938-2.375.3125h2.6875ZM301.4374,137.8134h-1.4688l.875.875,2.0938-.5938-1.1875.5938,4.75-.2812-1.7812-.5938-.9062.2812v-.5938l-2.375.3125ZM479.7811,602.6572h1.1875v-.5938l-1.1875.5938ZM203.3436,167.8134l-1.4688,1.1875.3438-.2188,1.125-.9375v-.0312ZM499.9999,594.6572l.5938-.9062-2.6875,2.0938v1.4688l-2.375,1.7812-1.5.3125.3125.875-1.1875.3125-1.5,2.0625.3125-.5938-2.0938,1.5.5938.2812-1.4688.5938.5938-.875-2.0938,1.4688-.2812.5938-1.1875.3125-7.1562,3.5625-2.9688,2.6875.9062,2.6562-5.0625,2.9688-1.7812,1.8125,1.1875,1.4688,3.2812-.875,8.625-3.5938,14.25-12.4688.9062-1.5,1.7812-1.1875v-1.7812l.875-.875.9062.5938,1.4688-1.5-.875-3.25h-2.375ZM193.8436,488.2509l.9062.875-.5938-2.0938-.3125,1.2188ZM476.4999,602.3759l-.875.875h1.1875l-.3125-.875ZM375.4374,146.7197h-.1875l1.6875,1.5-1.5-1.5ZM151.6249,237.9697l1.7812-2.9688-1.7812,2.0625v.9062ZM153.7186,514.0947l-1.1875-2.0938-3.875-5.3438-3.8438-7.4375-3.5625-7.125v2.9688l.2812.5938-.3125-.5938v-2.9688l-.2812-.2812-5.0625-7.4375-2.375-5.0625-2.6562-2.375v-1.4688l.5938.5938-1.1875-2.0938.875.875-.5938-2.9688-.875-.2812-.3125-1.5-.2812-.2812.2812-.3125-.5938-.5938-.5938-2.0625-.2812.2812v-1.1875h-.3125l-1.7812-4.75-.3125.3125-1.1875-3-.5938.5938.5938,1.8125-.5938-.9062-.2812-1.5-1.1875-.2812.2812-1.1875-2.0625-3.5625,2.6562,4.4375.5938-1.4688-3.25-7.4375-.5938.9062v-1.5l-.5938-.2812v-1.5l-.5938-.3125.2812-.875,2.375,1.7812-.2812-.9062.2812-.875-1.1875-3.875-.2812-8.0312-.3125-1.1875-.0936.1976-.248.0309-.5333-4.3848-.8125-3.6875-.9525-4.3214.1533-.0511-.2471-.7397-.0752.025-.1598-.7252-3.4164-10.249.0342-.1025-.0768-.0255-.1035-.3104-.5938-7.4375h-.5938l.5938-1.7812v-3.875l-.4108-3.5017.0017-.0017.1812.0181.0498-.249.1201-.1201-.0802-.0802.2833-1.4183-.7389-.1477v-.7493l-.5938-2.375.5938-2.0625v-4.1875l-.5938-2.375-.5938,3.875.2812,1.7812-.5938-2.0938-1.4688-5.0312-.3125-2.0938,1.7812,7.125.3125-.5938.5938-2.9688v-1.1875l.2812-2.375.9062,2.6875-1.5-8.625v2.6875l-.875-4.1875v-5.9375l-.3125-6.5312.3125-2.9688.2812-5.3438.1562-.9062-.1562.3125v-1.5l-.5625-3.4062.473-1.858.0442.3551.7744-.0967-.0564-.4514.5148-2.574-.875-2.9688.2812-3.5625-.2812.5938.2812-2.6875v-.5938h-.5938v.3125l-.5938,1.7812.1996-1.7167.177.0194.6797-3.0552-.4038-.0898.535-2.5952.9062-5.3438.5938-2.6875.2812-.875.3125-2.375.2812-.875-.2812.5625-.3125,1.5v.5938l-.2812.5938-.5938,2.375-.3125,2.0938-.875,4.1562v1.1875h-.3125l-.348,1.8286-.2529,1.1372h-.3867v1.7837l.0823.009-.5634,2.9602-.5938,2.9688-.3125,2.375v.5938l-.0938.1562-.0938,1.0625.0625-.9688-.1562.3438v1.5l-.3125.5938v2.0625l-.2812.5938v1.2188l-.3125.875v1.5l-.2812.875v2.0938l-.3125.875v2.6875l-.2812.875v2.6875l-.5938,8.0312-.3085,7.9271-.125.006h-.2788v.0133l-.0186.0009.0186.3872v5.7275h.2745l.0243.5073v.8833l.101.3257v5.0342l.1949.3704v.0115h.0007l.0032,3.23.1136.7861v2.1333l.2188.5-.0061-.0964.184.6077,2.2596,19.8011,1.5,10.375.25,1.0938-.25-.7812v-.3124l-.2188-.8125.2186,1.1248-.9061-3.5624h0v.875l.3125.5938v1.1875l.2812.5938v.9062l.3125.5938v1.5l.2812.5938v.5938l.3125.5938v.875l.2812.5938v1.1875l.3125.3125v1.1875l.2812.5938v.2812l.3125.9062v.875l.125.125.0312.0311.125.4375v.5938l.3125.5938v.9062l.2812.5938v.3125l.3125.5938v.875l.2812.5938v.5938l.3125.5938v.3125l.2812.5938v.875l.3125.5938v.5938l.2812.5938v.5938l.3125.5938v.3125l.3125.5938v.5938l.2812.5938v.2812l.3125.5938v.625l.2812.875.3125.5938v.5938l.2812.5938v.5938l.1562.125v.0312l.1562.5v.25l.2812.5938v.5938l.3125.2812v.5938l.2812.5938.3125.9062.2812.5938v.5938l.3125.5938v.2812l.2812.9062.3125.5938v.2812l.1562.1562v.0311l.125.4062v.3125l.5938,1.1875v.3125l.3125.5938v.5938l.2812.875.3125.5938.2812.9062.3125.5938.2812.875.3125.5938.2812.9062.3125.5938.5938,1.7812.2812.5938.3125.875.2812.5938.3125.9062.2812.5938.5938,1.7812.3125.5938.2812.9062.3125.5938.2812.875.3125.5938.2812.9062.5938.875.3125.5938.2812.9062.3125.5938.5938,1.7812.3125.5938.5938.875.2812.5938.5938,1.8125.5938.5938v.5936l.3125.2812.5938,1.1875-.7188-1.625,2.4688,5.1562.0312.0625v.2812l.2812.5938.3125.2812.2812.5938v.3125l.3125.5938.5938.5938v.5938l.2812.2812.3125.5938.2812.3125v.2812l.3125.5938.2812.3125.3125.5938v.3125l.2812.5938.5938.5938.3125.5938v.2812l.2812.5938.5938.5938v.5938l.3125.3125.2812.5938.5938.5938v.5938l.3125.2812.2812.5938.625.5938v.5938l.5938.5938.2812.5938.3125.3125.2812.5938v.2812l.3125.3125.2812.5938.3125.2812.5938.9062.5938.9062h-.3125l.3438.3438,1.1562,2.0312.4062.5312.1875.3438.375.375.2188.2188.0625.1562-.2812-.375.8125,1.4062-.3125-.5938-.1875-.4375.7812,1.0312.5938,1.5,2.0938,2.6562.2812.5938.5938.9062,1.0312,1.4375.1562.3438.1875.1562.0625.0938.0625.0625v.2812l.2812.1562.0624.031v.0007h.0314l-.0938-.1875.0621.1864-.6559-1.0619.3125.2812-4.4688-8.9058.3125-.3125.875,1.7812.5938.5938h4.7812l-.3125-2.375-1.7812-5.3438ZM109.7311,326.8887l.0608.0067-.3545,1.418.2937-1.4247ZM109.0449,341.2929l.08-.4795.5312-.2812-.5312,3.25-.2812,1.5-.1854.5193.3867-4.5085ZM105.4604,390.0319l-.0859-1.3618.0464.321.0396.5969v.4438ZM107.1335,368.248l-.001-.0239.1023-.3071-.1163-.0388-.0172-.4238.2423-.4846.5938,1.4688-.8038-.1904ZM107.6561,338.1259l.125-1.125.1562-.9375-.2812,2.0625ZM108.8436,383.9072l.2812-2.9688.3125.875-.5938,2.0938ZM112.9999,431.7509l.2812,1.5-1.1875-4.4688.9062,2.9688ZM112.4061,432.3447l-.9062-3.5625-.875-1.7812-.875-4.3125,1.1562,4.625.5938,1.1875.9062,3.8438.5938.5938.5625,1.7188-1.1562-2.3125ZM115.0624,418.3759v1.5l-.5938-1.7812.5938.2812ZM114.4999,438.3758l-.3125,1.4062v-2.5312l-.0938-.25-.0312-.0936-.0625-.2188-.4062-1.9375.0625.1875.3125.875.5312,1.5938.2812,1.7812v.0936l-.2812-.9062ZM114.7811,439.7822v-.4375l.25.8125-.25-.375ZM115.9686,442.1572l-.5938-.875-.3125-1.0625.3125.4688,1.7812,3.5625-1.1875-2.0938ZM120.1249,453.4697l-.7812-2.9375-.0938-.2188v.7812l-.5938-2.0938.5938,1.3125v-.125l.0938.3438.7812,1.75h-.2812l.2812,1.1875ZM127.8436,482.0009v-.5938h.0312v.5938l.2812.5938-.3125-.5938ZM146.5936,518.1572l-.2812-.4688.2812.2812v.1875ZM112.0936,379.4384l-.2812-.875.5938,3.25.5938-1.7812-.5938-2.375-.3125,1.7812ZM639.0936,352.0947l-.5312-3.7812.5312,6.75.3125,3.7812v-2.5938l-.3125-4.1562ZM638.4999,347.9384l.0625.375-.0625-.6562v.2812ZM626.6249,292.6572l.875,1.7812-.875-2.0625v.2812ZM353.4686,129.4697h2.375l.2812-.5938,1.1875.3125-.875-.9062,2.375.3125.5938-.5938-1.7812-.3125-.9062.3125.3125-.9062-2.9688,1.5.875.2812h-1.7812l.3125.5938ZM637.3124,337.8447l.2812,2.375v-.5938l.3125,1.7812v-.5938l-.5938-2.9688ZM639.4061,358.8447v.4062l.4688,5.9688-.1875-3-.2812-3.375ZM638.1249,343.7197l.375,3.9375v-1.5l-.375-2.4375ZM639.8749,365.2197l.125,1.75v-.3125l-.125-1.4375ZM629.7499,301.7509l.125.7188v-.3125l-.125-.4062ZM631.6561,310.5009l-.5938-1.1875.5938,1.7812v.2812l.3125.9062.875,2.9688v-.3125l-1.1875-4.4375ZM635.8124,329.2197l.3125,1.1875-.3125-1.7812v.5938ZM632.8436,315.8447l.7188,2.5938-.7188-3.1875v.5938ZM636.9999,335.7509l-.5938-5.0625v.3125l-.2812-1.1875-.0311-.25-.2812-1.8438-.5939-2.0625.5938,2.7188.3125,2.0312.2812,1.1875-.2812-.9062,1.1875,7.1562.2812.875-.5938-2.9688ZM637.9061,342.2822l.2188,1.4375-.2188-2.3125v.875ZM637.5936,400.5634v-.3125l-.2812.5938.2812.9062.25-1.6562-.25.4688ZM637.9061,399.6572l-.0625.4375.0625-.125v-.3125ZM638.4999,402.0322l.2812-1.7812-.2812,1.1875.2812-2.0625-.5938,3.25.3125-4.4375-.3125.875-.2812,3.2812v-2.0938l-.3125,1.5-1.1875,1.1875v1.7812l-.875.5938h-.3125l-1.4688,3.5625v-1.5l-1.1875.9062-2.6875,7.4375.9062,1.4688,1.7812-2.375,1.1875.5938.875-2.375.5938,2.6875.5938-1.1875.3125-.3125.5938,1.5.5938-2.6875v-.875l.2812-.5938v-.9062l.3125-1.7812v-1.5l.2812-.2812.9062-8.625v-.2812l-.3125,2.6562-.2812,1.1875ZM634.6249,411.2509l-.2812-.2812.5938-1.1876-.3125,1.4689ZM627.4999,417.5009l.3125-1.1875-.5938.5938.2812.5938ZM601.3436,456.1259l-.5938.9062,1.1875-.5938-.875.875v1.1875l.2812.9062v.5938l.2073.394,4.4503,1.6775.6861-3.259-2.0625-2.6875h-3.2812ZM621.8436,405.0009l.3125.3125-.3125-1.7812v1.4688ZM634.6249,421.6572l.5938-.9062-.2812-1.1875-.3125,2.0938ZM639.6874,370.8445l.3125,5.3438v-8.9374l-.3125,3.5625v.0311ZM639.0936,372.0322l.3125.2812-.3125-1.7812v1.5ZM508.6249,526.8759l-2.0938.2812-5.0625,4.7812-8.3125,4.1562-3.5625,3.25-2.6875.3125-5.0312,3.875-5.4718-1.833.0496-.085-.6738-.3926-.1309.2245-.0231-.0077-.7953.3513.0374-.7444,1.3517-1.1069-.3125-1.7812-.3722-.1577-.3567-.6421-.5016.2786-8.582-3.635h-4.4375l-.9062-.875-.5938-.5938-.5938,1.7812-5.7758-8.8081.3906-.4165-.5684-.5337-.2621.2795-.0344-.0525-2.7572-.8049,7.5437,38.9545-7.2182-15.9518-.2245,1.8959-1.7812-1.5,1.8331-.7776-26.408-58.3599-.7063-.6125-.4345-1.9086-3.6658-8.1012-.056-.0839-3.25.3125-7.4375,4.4375-8.625-1.7812-6.8438.3125-.0199-.0298.1943-.8545-.7607-.1729-.03.1324-.5712-.8566-6.5312-.5938-.9062-1.7812-5.3438-1.2188-6.5312,3.2812v5.6562l-.3125.2812-4.1562,2.0938-4.4375-2.6875-8.3438-2.375-2.0625-4.4375-6.8438-2.6875-4.1562-.3125-2.5951-1.6848v-.4607h-.7097l-.6157-.3997-36.5464,96.9573,1.8107,1.619,2.0938.875-1.5-.2812.9062.875,1.1875-.2812-1.5.875,2.9688,2.9688,3.2812.5938v-.5938l.5938.9062-.2812-1.1875.875,1.1875.3125-1.1875,1.1875,1.1875,4.4375.5938-.2812-1.1875.7941.7941-.144.2642.6846.3735.0343-.0629.0999.0999,1.1875-.5936,1.7812,2.6875h2.4062l.2812.875-1.1875-.2812,2.0938,2.375-.9896,1.6877-.2188-.0457-.1353.6492-1.6251,2.7712.5345.2161-.1033.7234,1.0375.1481v.975l-1.7812-.2812,3.2812,1.1875h-2.375l-.5938-.9062-1.2188,2.6875-1.7812-.3125,4.1875,5.0625,6.9374,4.4329-.3538.2126.4023.6685.6853-.4122,2.11,1.3483,1.1827,1.8359.0396.145.0459-.0125.7891,1.2249h-.3574v.7803h.8896v.5952h.2286l5.2131,5.2437-1.7812,1.1875,1.7812,2.0625,2.375,2.0938-.875,2.0938-5.0625,1.7812-2.9688,3.5625.3385,1.6926-.4199-.0182-.0332.7793.6104.0253.098.4897,12.4688,6.8438,2.6875,3.25,9.8125,2.6875h7.4375l.5938.2812h6.5312l.5938-.2812h9.2188l.5938-.3125h4.4688l.5938-.2812h3.8438l.5938-.3125h2.6875l.5938-.2812h2.6562l.5938-.3125h2.0938l.5938-.2812h1.5l.5938-.3125h1.7812l.5938-.2812h1.4688l.5938-.3125h1.5l.5938-.2812h1.7812l.5938-.3125h.3125l1.7812-.5938,5.0312-1.1875,1.3416-.8433,1.7889-.2988-.1252-.747.276-.1735-.3414.1617-.7162.1195h-.1091l-.2186-.123,12.9791-4.0333.875-1.7812-2.9688-1.1875.3125-1.1875h.875l6.5625-2.3749,2.6562-2.0938,13.375-5.6562.9062-.5938,4.1562-3.25-1.1875-2.6875.875-.5938-.5938-2.375,1.5-1.5-.4794-.0503.1216-.0693-.3867-.6772-1.0637.6077-.8793-.092h-1.1875l-.5938.3125h-.5938l-.5938.2812.5938-.3125h.5938l.5938-.2812-1.4688-2.9688.875-1.1875-1.1875.2812,1.7812-2.0625-3.25-1.1875,1.8589-3.4924.545.071.1016-.7734-.1851-.0242,3.3046-4.406.9062-1.1875,3.5625-2.375-.9062-.5938,2.4062-.5938.849-.9033.5256.2334.3164-.7129-.2761-.1226,8.3663-8.9009,10.125-8.625,8.0312-9.2188,10.0938-20.5v-2.9688l1.7812-1.5-1.5.9062.625-5.0625ZM310.3436,572.6572l1.1875-7.4375-1.4688-2.6875,1.7812,2.9688-1.5,7.1562ZM325.8124,593.7509v-.875l1.5.5938-1.5.2812ZM342.2905,550.113l-.4156-.6433,1.1903-.2089.1228.5526-.8975.2996ZM344.75,551.4975l1.5624-.2466v1.0875l-.7328-.4186-.3457.6055-.4839-1.0278ZM346.0454,554.2493l-.7502-1.5939,2.1301,1.2168-1.3799.3771ZM348.2822,553.6381l-.0146-.0209.0698-.1222-.2588-.1479-.1738-.248-.1172.082-1.2424-.7097,3.9547.5608-2.2177.606ZM354.6561,601.4697l-.0665-.4387.2021-.7072-.1356,1.1459ZM364.1561,600.8759l-.9062-2.375,2.4062-.2812-1.1875.875,1.4688.5938-1.7812,1.1875ZM383.4686,588.0947l-11,1.5-3.25.5938-4.1562,1.4688.2812,2.4062-4.3462,2.1013.9757-.5691.1777-.2261.2441-.824,2.9486-3.4822,7.125-2.0625.9062-.3125,10.6875-.875,9.8125,3.8438-10.4062-3.5625ZM398.0311,639.2196h-.5938l1.5-.2812-.9062.2812ZM410.5311,614.2509l.0621-.1936.1029.171-.165.0226ZM412.0297,626.2855l.0028-.0037.5612-.1247-.564.1284ZM438.4686,610.4072v.0559l-.0651-.0745.0651.0186ZM420.8606,517.1855l.1165-.0142.2773-.1709.1533-.23.0403.1204-1.4169,1.9539.8295-1.6592ZM421.2592,586.2839l-.0405.0325v-.0029l.0405-.0295ZM416.7811,591.6572l.8123-.1283-.1661.5546-1.2711.7925.625-1.2188ZM415.5742,596.2089l.3007.2295-.475.2937.1743-.5232ZM413.4999,597.9072l1.1875-2.375.1738.1326-.1205.0803.1105.1658-.4872,1.4619-.8641.5344ZM417.6561,616.6259l-1.4688.5938,1.4688-1.1875v.5938ZM415.8749,612.4697l1.1875-1.1875,1.7812-.2812-2.9688,1.4688ZM420.6249,610.6884l-1.2012-1.9424,1.2321-.751-.4062-.666-1.3799.8411-3.901-1.9504.3125-4.75-.9062.9062.7445-1.6852.6887,1.8361.3652.2534h1.0289l1.3601,2.5645-1.1875,1.1875,3.8438.9062,1.515,2.0731-1.2664-.1151-.0703.7769,1.9497.1772.2469.3379h-2.9688ZM423.9061,513.5009l-1.8949,2.6132-.1152-.3461-.3062-.0409.8163-1.6324,3.5625-1.5.9062-4.75,1.1875,4.1562-4.1562,1.5ZM427.1561,608.6259v-.9062l2.6875.5938-2.6875.3125ZM434.5936,594.6572l-2.375.2812.5938.9062-1.4688.5938.5938-1.1875-3-.3125-1.7812,1.7812-.875-1.7812.8378-2.5134,10.0623-1.8112.0203.0018-.2328,1.0415-3.25,2.0938,2.6562-.2812-1.7812,1.1875ZM436.4633,609.8384l-.1052.0105.0168-.0355.0884.025ZM436.2041,611.2772l-.0811-.2025,1.5759-.278.1985.1987.0826.0944-1.776.1874ZM439.8306,616.7687l-1.6553-.4353-.4521-1.356,1.2432-1.2412,1.0012-.2788-1.2177,1.6997,1.0807,1.6116ZM445.3124,575.6259l1.0558-2.3586.6925-.1299,1.8142,5.1448-3.5625-2.6562ZM458.3749,605.6259l.5938-.2812-.5938.3125h-.5938l-.5938.2812.5938-.3125h.5938ZM463.4374,565.8134v-.5938l.2812.875v.625l-.2812-.9062ZM464.0311,574.1259l-.3125-.875v-.3125l.3125.9062v.2812ZM633.1561,420.1572h.2812l.5938-.5938v-1.4688l-.5938.875-.2812,1.1875ZM631.3749,421.6572l.875-1.7812-.5938.5938-.2812,1.1875ZM633.5624,318.4384l1.6562,7.2188-.875-4.4688-.7812-2.75ZM524.9686,173.4697l-6.5625-4.4688,2.0938,2.0938,4.4688,2.375ZM524.6561,591.6572l1.5-.875h-.5938l-.9062.875ZM505.6249,181.1884l2.375,1.7812,3.5938.3125,2.9688-1.1875,3.5625.2812,11.875,1.5-2.9688-1.1875-.875-2.0938,1.4688.3125-1.4688-.5938-2.0938,1.7812-4.75-1.1875-2.0938-2.0938.5938-1.4688-2.9688,1.1875-2.9688,1.7812-8.3125.875.875.9062,1.1875-.9062ZM528.8124,176.4384l1.1875.5938-4.1562-2.6562.5938.875,2.375,1.1875ZM531.4999,177.6259l-1.5-1.1875,1.2188,1.125.2812.0625ZM530.5936,178.5322l1.5,2.375-.5938,3.5625,7.125,2.0625,1.7812,2.6875.5938-.2812,1.7812,1.4688.5938.5938,2.375.3125-2.6562-3.2812.2812,2.0938-1.1875-.9062v-.875l-2.375-1.8125-1.1875-3.5625-3.8438-2.0625-3.5625-3.3438-2.6875-.5312,2.0625,1.5ZM459.8749,597.3134l1.4688.3125-.5938-.9062-.2812-.5938-.5938,1.1875ZM321.0624,579.4697l-2.0938.9062,1.1875.5938.9062-1.5ZM545.7499,188.9384l.3125,1.7812,1.7812,1.1875.5938.2812,2.0938,1.1875-.5938-.875v-.3125l.5938.3125.875.2812,4.1562,2.6875,7.4375,7.125v.9062l-2.0625-1.7812,1.4688,1.7812,5.3438,3.8438,4.75,8.3438,6.5625,8.3125.875.5938-1.7812-3.5625-1.4688-1.5h.2812l-3.875-5.6562-1.7812-3.25,2.4062,1.7812-.3125-1.5-.9062-.875-2.9688-3.2812v.5938l-1.4688-1.1875h.5938l-.9062-.5938-.2812-.875,1.1875,1.1875-2.0938-3.2812-2.375-2.0625,1.1875.2812-2.0625-1.5-.9062-1.4688-.2327-.1776.3251.1996.4922-.6001-.2979-.2974-.2754-.1143-.377-.2314-.0029.0034-.0391-.0278-.1224.2101-3.0325-2.527h-.5938l-2.6875-1.7812-2.6562-.9062-1.5-1.4688-4.1562-2.6875-3.5625.3125,1.1875,1.4688.875-.2812ZM561.8035,196.9339l-.051.0875-.1842.1838-.3496-.2668-.2812-.2812-.3125-.3125,1.1786.5892ZM518.7186,519.7509l1.7812-1.7812-4.75,2.375,2.9688-.5938ZM460.4686,531.0322h-.3125l.3125.9062,2.0625-.3125-2.0625-.5938ZM518.1249,596.4384v-.3125l-1.5.9062,1.5-.5938ZM509.2186,477.8447l-5.375,2.6562-1.4688,2.0938h-3.1539l.5754-.8638-.6494-.4326-.1467.2202-.5004-5.7676-2.0625.9062.2812,5.3438-3.875-3.5625-.2812-2.9688-5.6562-1.5-2.6166-3.1159-45.1365-5.7552,7.2292,37.3307,3.6801.9779,3.5625,4.4375.875,5.0625,3.875,1.5,3.5625,1.4688,9.5312,8.625.0472.8962-.3054.3054.3394.3394.2001,3.8027,4.75,7.7188,6.5625-2.6562,2.0625-3.2812,11.9062-7.4375,2.375-3.25,10.4062-8.625.5938-3.5625,1.8353-1.4683.3167.2373.4678-.624-.1555-.1165,6.442-5.1536.875-3.5938,3.2812-2.375.9062-3.8438,3.25-3.2812-1.1875-4.1562.9062-2.0938h1.1875l1.4021-5.6085-19.0804-2.4329-1.6342,3.6039ZM455.0936,495.3759v-1.1875l-.2812-.5938.3125.5938v1.1875l.2812.5938-.3125-.5938ZM455.7186,475.4697h-.5938v-.0312h.5938l.5938-.2812-.5938.3125ZM457.7811,474.8759h-.5938v-.0312h.5938l.5938-.2812-.5938.3125ZM459.2811,474.2822h-.5938v-.0312h.5938l.5938-.2812-.5938.3125ZM626.6249,291.7822v-.625l-.3125-.2812v-.3125l-.5938-1.4688.5938,2.0625.3125.625ZM625.4374,288.1884v.1875l.2812,1-.2812-1.1875ZM625.4374,288.3759l-.9062-3.1562v.5938l.9062,2.9688v-.4062ZM624.5311,287.3134l.4688.9375-.1562-.6562-.3125-.2812ZM627.8124,297.4072l.5938,3.5625.2812-.2812.3125.5938-.3125-1.1875-.875-2.6875ZM627.4999,294.4384v.3125l.2188.1875.0936.4062.2812.875.1875.6875-.4688-1.2812.2812.9059-.5936-1.1871.5938,1.4688.5938,2.375,1.1875,3.2812-.8749-2.9685.1873.406.0938.4688.4688,1.375-.1562-.7812-.4375-1.3125-.0938-.5-.375-1.4375-.5-1.4062-.0936-.4375v-.25l-.125-.25v-.0312l-.1562-.5938-.3125-.5938-.5938-1.5.5938,1.6562v.125ZM628.9998,299.1884v.3123l-.9055-2.9668.9055,2.6545ZM595.0936,238.5634l-1.4688-1.7812,1.4688,2.375v-.5938ZM574.3124,215.0945l2.375,2.9688h-.3125l3.2812,3.8438-.9062-1.1875,1.5.3125-1.1875-1.5-2.0938-2.375-.2812-1.4688-2.375-2.375h-.5938l.5938,1.7812ZM583.2186,229.3447l.2812-.5938v.5938l1.1875.5938-1.1875-1.7812h-.5938l-.875-1.4688,1.1875.5938,3.5625,3.5625v-1.1875l-1.5-1.5,1.8125,1.5-1.8125-2.6875-4.75-4.4688-.5938,1.7812,3.2812,5.0625ZM625.1249,294.1572l.3125,1.1875v.5938l.2188.2188.375.9688.875,1.1875.3125.2812v-.2812l-.5938-1.5v-.875l1.1875,3.25-.3125-2.0625-.875-2.375v-1.1875l-.5938-1.7812v-.625l-.4062-1.6875-.625-1.2188.125.5312.5938,1.5-.5938-.3125.5938,2.0938.5938.9062v.875l-.875-1.1875-3-7.4375-.875-.875-1.1875-2.0938,1.4688,5.6562,3.2812,6.25ZM614.7186,279.8759l1.5-.5938-6.5625-10.4062-.2812.9062,4.4688,8.3125.875,1.7812ZM624.5311,319.7197l-.5938-.5938v6.2188l.9062,3.875,1.4688,1.1875.3125-1.7812-.5938-4.1562-1.5-4.75ZM328.4999,193.9697l1.1875,1.5,2.0625-1.7812-1.4688-.9062-1.7812,1.1875ZM485.0419,154.4358l-.3511,2.7536,3.7154-1.8447-3.3643-.9089ZM277.6561,255.5009l2.375,3.2812-.2812-2.375-2.0938-.9062ZM396.8436,141.6572l-4.1562-1.4688-2.0625.2812,5.9375,2.0938.2812-.9062ZM321.9374,204.6884l1.7812,1.4688,3-1.7812-3.2812-.5938-1.5.9062ZM491.0624,156.2197h-1.1875l3.5625,1.1875-2.375-1.1875ZM254.0738,277.6625l20.0035,2.5506.0165-.0247.0048.0275,32.3011,4.1186-.5087-2.6266-.5787-.0508-.5938-.5938.9747-.3766-7.2539-37.4576-1.4395.678h-.0311l-2.0625,2.6875-.5938-1.5v1.1875h-2.0938l1.7812.5938-2.9688-.875-.2812,2.9688,3.8438-1.5-2.375,1.5.375,1.1562-.3438.3438-1.2188-.625.5938,1.1875-.375.375-1.0938-.375.7188.7188-.0625.0625-.6562-.4688v1.0938l-.1562.125-.1562-.625-2.375,2.9688.9062-3.5625-1.1875-1.7812-1.7812,3.8438,1.0938,2.4688-.2188.2188-3.5625.5938.2812,1.5-1.1875.2812.5938-1.4688-2.375,1.7812h-.0001l-1.7811-.3125-.5938,2.0938-.2812-4.75-.3125,2.375-.2812-1.7812-2.6875.2812,3.2812,2.0938-1.1875-.5938,1.4688,2.6562-3.8438-4.1562.875,3.5625-2.0625-2.9688-.3125,2.9688-1.5-1.4688v1.7812l-.5938-1.7812-.5938,1.1875-1.1875-.3125,5.0625,2.0938v1.1875l-5.3438-2.9688,1.1875,2.6562-2.0938-1.4688-1.1875,1.7812,2.6875.875v1.5l-2.9688-2.375.5938.875-2.375.9062,1.4688.875-1.7812-.5938-2.0625,1.1875,3.25.9062,1.5-1.5-2.375,4.1875v-1.1875l-2.0938-1.7812.9062,2.6562-1.5-2.0625v1.1875l-1.4688-.3125.5938,1.7812-1.1875-.875.5938,2.0625-.9062-1.4688.3125,1.7812-2.0938.5938,1.5.5938-2.4062.2812-.2812,2.0938-1.5.2812,1.1875,1.1875-1.4688-.5938,1.1875.5938-1.5.3125.1988.7554ZM296.0936,266.1884l.5938-.2812-.5938.3125v-.0312ZM278.5624,278.9697l1.1875-.5938-1.1875.625v-.0312ZM278.2499,279.5634v.0312l-1.1875.5938,1.1875-.625ZM436.0936,193.3759l-.9062,2.0938,3.2812,1.1875.2812.2812v-.2812l-1.4688-2.9688-1.1875-.3125ZM319.2811,187.4384l-.5938,3.875-2.0938,2.0625,2.6875,1.7812,1.4688-.5938-1.4688-.875,1.4688-.5938,4.4688.875-.9062-1.4688-4.1562-.5938,2.0938-1.5,5.9375-.5938.3125-1.1875-1.5.5938.9062-1.7812-1.7812,1.1875,1.1875-2.375-1.5,1.7812.9062-2.6875-2.6875.9062.2812,2.0938-1.4688-.9062-1.7812,2.6875.875-3.5938-2.6562.9062ZM419.4374,166.0322l1.5,1.1875-.3125-1.4688-1.1875.2812ZM329.0936,185.0634l-.9062,1.1875,1.1875.9062-.2812-2.0938ZM327.9061,202.9072l4.1562-2.0938-2.0938-.9062-1.1875,1.2188-1.1875-1.5-.2812,1.1875-3,1.5-.875.2812,3.2812.3125h1.1875ZM294.2314,221.5002l-.2316-1.1956v1.3213l.2316-.1257ZM283.5936,254.9072l1.5-2.0625.5938-.9062-.5938-1.7812-.9062.2812-1.7812.5938.5938,2.0938h-1.4688l2.0625,1.7812ZM318.9685,199.3134l-2.8125.2812,3.125-.875h-2.9688l.2814-1.7812-1.4688,2.3438h-.0625l-.25-.25-.2812-.9062-2.0938.3125-.9062,1.7812h.0311l.875.9062,5.9375.5938-.875-.9062.5938-.5938.875-.9062ZM308.5624,196.3447h-2.0625l1.1875-1.1875-2.0938,1.1875-.875-.2812-.5938-.3125,2.6562-1.4688-1.1875-.9062-5.9375,1.5-1.7812.5938-.5938,1.1875.875.125-.2812,1.3438,3.5625,1.1875,2.375-1.4688,1.7812,2.0625,2.375-2.6562.5938-.9062ZM425.6874,228.1572l-3.2812.5938,1.5,1.1875-2.6875-.5938,6.25,3.2812-1.7812-4.4688ZM255.0624,218.9384l1.1875,1.5,1.5-1.5v-1.7812h2.0938l5.0312-4.4688-.875-.5938,3.25-1.1875-7.125-.5938-1.5-1.4688-.2812,2.375-2.6875.875,3.2812,3.2812-2.375,1.1875-1.5,2.375ZM267.5624,212.6884l-1.7812.625-.5938,1.1875,2.375-1.8125ZM272.6249,225.7822l-1.2188,2.0938,1.2188-.5938v-1.5ZM274.0936,223.0947h-4.4688l.3125,2.375h2.6875l1.4688-2.375ZM253.8749,224.5947l.3125-1.5-1.5,1.1875,1.1875.3125ZM256.8436,243.9072l.5938.9062,1.8125-1.7812-1.2188-.5938,1.8125-1.1875-1.5.2812,4.1562-2.0938-1.1875-1.1875,2.6875-.875v1.7812l2.375-1.7812v1.7812l-2.0938,1.7812,1.5.3125h-2.0938l2.0938,1.7812-2.9688-.9062-3.2812,4.4688,4.4688-1.5-1.1875,1.7812,2.375-1.4688-.3125,1.7812,1.1875-1.7812v2.0625l1.1875-1.4688.5938,1.1875,1.1875-1.5-1.7812-.5938,1.5-.5938-.9062-1.1875,2.375.3125-2.0625-.5938h1.4688l-1.1875-1.5,1.1875.9062.3125-1.5v1.5l2.0938-1.5-.8438-.8438-.375-.0625,1.5-1.1875h-1.5l1.8125-.2812-1.1875-.3125,1.4688-.2812-.875-.5938,1.7812-.9062-.3125-.875.9062,1.4688,1.4688-4.4375v2.375l1.5-.9062-.9062-.875,1.1875.875.5938-1.4688-.5938,3.5625,1.1875-1.1875v-3.875l.9062,3.5625,1.1875-.2812h.2812l1.1875-1.5-1.4688-.875.875.2812-.5938-1.7812,2.0938,2.0938,1.1875-1.7812-1.5-1.1875,1.7812.5938-3.5625-1.5h2.0938l-.3125-.875,2.6875,1.1875-1.7812-2.0938,2.6875,1.1875,1.7812-1.7812-2.6875-1.1875,3.2812-.3125-2.375-1.4688,2.0625.2812v-.875l1.7812,1.1875-.5938-2.375,2.375,1.1875,1.7139-2.8565-.0338-.1747-1.3676-.8438-1.5,1.7812.9062-2.0625-2.375,1.4688,3.5625-2.6562-.3125-.3125-.9062-.6875,1.3967.2358-.8477-4.3777-.2365.0794.2184-.1729-.2375-1.2267-1.4496,1.0872-2.6875-.2812,1.1875-.3125,1.5-5.3438-2.6875.5938-1.7812,1.1875.5938,1.7812-2.375.5938-.3125.3125-1.7812,5.0625.5938-.5938v.2812l-1.4688,1.1875,1.1875-.5938-.3125,1.7812-.875,1.7812.5938-.2812-.3125,1.1875-1.1875.5938.9062.5938h-1.5v1.1875l-2.0625,1.1875-2.0938-1.1875,1.1875,1.4688-2.375,2.0938.5938.5938-5.9375,3.2812-2.0938-.9062-.5938,1.7812.3125-1.7812-2.375-1.4688-2.9688,2.0625-.5938-3.5625,1.1875-2.6875-4.1875-.2812-.875,5.9375,2.0938-.875-2.4062,2.375h1.1875l-3.25,2.0625-1.1875,2.6875-.5938-1.5-1.5,1.1875-4.4375,11.5938,7.125-7.7188-1.5,2.6875,1.5-.9062-4.1562,6.8438,4.75-2.6875-2.0938,2.375,2.9688-1.4688,1.1875-2.0938ZM258.0311,233.2197l3.2812-.5938-3.5625,3.25.2812-2.6562ZM271.1249,240.0322l.0625.0625,1.4375.25-1.5-.3125ZM280.6249,218.0633l.9062.5938-.3125-.9062v-.875l-.5938,1.1875ZM367.7186,274.5322l1.5,2.0625,2.375-8,.875-.5938,1.5-.5938-1.5-1.7812v-.0312l-1.4688-2.0625-.5938,1.1875-.9062-2.9688v4.75l-1.4688-3.875-.5938,2.0938-1.5-1.5,1.5-.875-2.6875.875,1.1875,5.9688,2.375-2.375v1.4688l.9062-.875.875,1.1875-3.8438,1.4688.2812,1.5,2.9688-.9062-2.375,1.1875,1.5.9062-2.375-.5938,1.4688,2.375ZM348.406,251.9384l3.2812-2.375-1.8125-1.7812-2.0625,1.1875-.5938-.9062-.7812-2.375.7812-.5938-.9688.0625-.7188-2.125.7812.875,3.2812-.2812-1.7812-2.0938,1.7812-.875-5.6562-2.6875,2.375-.3125,3.5625,2.4062-3.25-4.7812-3.1875,1.4688-.0938-.2812.9062-2.6562h-1.7812l.2188,1.9688.0312.0312.0311.375-.0625-.4062-1.125-1.2188v-.75l-.2812.4375-.5938-.6562v-.375l-.1562.2188-1.1875-1.2812.1562-.4375-.375.2188-1.25-1.3438.125-.0625-2.0938-2.0625h-.875l-.3125-.9062-3.5625.9062.5938-1.1875-2.0625.5938,1.7812-.9062-3.875-1.5-1.1875.3125.5938,2.0938-5.0625-.5938-.2812-2.0938-3.8748-2.6875-3.25,3.2812.5938,2.375-1.5.3125v-2.4062l-.5938,2.4062-.2812-4.1875-1.7812,3.2812-1.2188-1.5-1.4688,1.2188-.9062,2.0625,1.5-.875-.9062,1.7812,1.7812,1.4688-.5003,2.2645,8.1418,17.9929.7022-.3511v.0312l-.6907.3453,9.4527,20.8897.7379-.1413-.875-.9062,1.7812-2.375.2812.5938,1.7812-2.0625-.2812-.5938.875-1.1875h.3125l1.7812-2.0938,1.4688.5938,1.1875-1.7812-.875-1.1875.5938-.9062.875.3125-.2812-.9062,3.2812-3.5625,4.75-2.6562-2.0938-.3125.9062-1.1875,3.5625.3125-2.375-1.8125h.2812l3.875.9062ZM422.1249,234.4072l.875-2.6875h.3125l-.75-.2188h-.0625l-.0936-.0625h-.0938l-3.1564-.9062v.3125l-1.5.2812.9062,1.1875-1.5-.5938,1.7812,4.1562,3.2812-1.4688ZM394.1874,253.1259l-.9062,3.875,1.7812-2.375-.875-1.5ZM288.3749,193.6884l-3.875,2.6562.5938,2.0938,4.2782-2.0322-.4645-2.3984-.5325-.3195ZM291.0311,190.4072h2.375l-.875-1.4688,2.6562.2812-1.4688.9062.5938,1.4688-1.5.3125,1.1875.2812.5938.3125,6.25-2.9688,7.125,1.4688,2.9688-.5938.5938-1.4688-5.9375-1.7812h6.8438l.5938-.9062-2.6875.2812,1.5-.5938-.9062-.875,1.2188-.9062.5938,1.5,2.375-.9062.2812-2.0625,2.375,1.4688,1.5-4.75-1.5-2.0625-1.7812.875-.2812-.875-2.9688,2.9688,2.0625-3.5625-2.0625-.3125-3.875,3.5625-3.875,1.7812,5.6562-5.9375h-.3125l-2.6562-.2812-4.75,2.0625-2.0938-.2812-3.875,4.75.3125,3.5625-3.5625.875-2.6875,3.875ZM336.4998,211.2197l-.875,1.1875-.9062-.5938v1.7812l-1.4688-1.7812v3.2812l-.5938-3-1.7812.9062,1.4688,3.2812-1.1875-2.0938-.875-.5938.875,2.0938-.5938.5938-.875-.9062v1.5l.875.5938h-1.1875l-.5938-2.0938-3.8438,1.5,3.5625-2.0938.875-1.4688-6.25,1.4688v-.875l-.2812,2.0625-.5938-1.1875-1.5.5938,2.0938-1.7812-.3125-1.5-2.6562-.875.875,1.4688h-1.4688l2.0625.9062-4.75-.5938,1.7812,2.0938-2.9688-1.7812,3.5625-2.6875-3.25.875-1.7811-2.9688-1.1875.9062,1.7812.2812-2.375.5938h1.4688l-1.7812.5938,1.5.3125-2.0938,1.1875,1.5.9062-1.5.875,1.7812-.2812-2.0625.875,2.0625-.2812-3.5625,1.4688.5938.9062.5938,1.4688,2.0938.3125.8125-1.6875h.0311l1.6875.0625-.75,1.0312,2.6562.2812-.2812,1.7812,1.1875-.5938.5938,1.1875.875-1.1875v1.5l2.6875-2.9688-.5938,2.9688,1.7812-2.375.2812,3.25,1.8125-.875-.9062,2.0625,1.7812.3125.5938-1.1875v1.4688l1.5-.5938-.9062.9062,5.0625,2.375-1.7812-2.9688,2.0625,1.7812.9062-1.7812-.3125,2.0625,2.0938,1.5,1.7812.5938,1.7812-1.7812-1.1875-2.375,1.7812.875.9062-4.75-.9062-1.4688-.5938-1.1875-3.2812.5938,2.6875-2.0938-.9062-.875-1.7812.875,1.7812-1.7812-1.1875-2.375ZM316.9061,208.5322l1.4688.5938.3125-1.1875-1.7812.5938ZM332.0624,209.1259l.2812-1.7812-2.375.9062,1.5-1.1875-.9062-.3125-1.4688,1.1875-1.7812-1.1875-1.7812,3.2812.2812-2.6875-2.6875,1.1875v-.875l-1.4688.2812-.9062,1.7812h2.0938l-2.375.5938,3.5625.9062-1.7812.2812,2.0625,2.375,1.8125-.5938v-1.1875l3.8438.5938-1.1875-.5938,6.8438-1.7812-1.7812-1.7812-1.7812.5938ZM373.9686,267.6884l-1.5.5938.9062,1.1875.5938-1.7812ZM376.3436,260.2509l-1.5,1.1875-.2812-1.7812-.3125,2.375-1.7812-1.7812-.2812-.5938v1.7812h-1.5l.5938,1.7812,1.1875-.2812,1.5-.3125-1.5,1.5,3.2812,1.1875,2.375-3.5625-1.7812-1.5ZM373.4999,124.7509l-.4375-.0312.0311.125.4064-.0938ZM400.9999,249.2509l-1.1875,1.1875.9062.9062.2812.2812v-2.375ZM401.5936,163.9697l2.4062-1.1875h-1.5l-4.1562-.3125,2.6562,1.7812.5938-.2812ZM400.7186,253.7197l.2812-1.5-1.7812.625,1.5.875ZM297.2811,201.1259l-3.2812-3.2812-.8276.6098,1.5116,3.3406,2.5973-.6691ZM253.7089,277.616l-.4276-.4276.1555.3929.2721.0347ZM382.1279,458.5845c-.3748.0423-.7504.0797-1.126.117l.6542,1.4556.4718-1.5726ZM459.1864,151.6545l-1.4052-.1849,1.107.9759.2982-.791ZM418.6539,259.1862l-.9978-.9978-.5938,4.4375-2.9688,2.375v1.5l-1.5,5.3438,1.0411.6575,5.0192-13.316ZM326.1249,172.8759l-1.1875.5938-4.4688-.3125-1.7812,2.6875.875,1.1875v.3125l-.2812,6.2188,4.1562-.2812.875-1.5h1.5l2.375-.2812,2.6875-2.375-2.6875-.9062-2.0625-5.3438ZM332.9374,183.8759l-.5938,1.4688h-2.0625l1.1875,3.2812-2.0938-.5938,1.7812,2.9688,1.7812-.5938,1.1875-1.4688-.2812-1.1875-.9062-3.875ZM332.6561,194.2822l-1.5,2.6562,1.7812-.2812-.2812-2.375ZM289.5624,211.5009l2.552-.9325-.6572-3.394-1.301,1.9515-.5938,2.375ZM311.8436,190.4072l-3.2812.9062v.2812l1.5,1.1875,2.0938-1.7812-.3125-.5938ZM250.9061,215.0945l2.375,2.6562.3125-1.7812-1.1875-1.4688-1.5.5938ZM305.9061,201.7197l-8.3438-1.1875.9062,1.7812,1.7812-.5938-1.1875,2.375,3.875,2.6562,2.9688-5.0312ZM330.5624,271.8447l.3125-2.0625-1.7812,1.1875,1.4688.875ZM308.2811,215.3759l-.5938-4.75,2.0625-1.7812-.875-.3125,2.6562-.5938-.2812-1.1875.9062,1.1875,1.1875-1.1875-.9062,2.0938,1.7812-1.7812.5938.5938v-2.375l2.0938.2812,1.7812-2.375-3.5625.3125-.5938,2.0625-6.25-.2812-2.9688,1.7812,1.1875,1.7812-2.375.5938-.9062,3.875,1.5.2812-2.375,1.5.875,1.7812.3125.5938.5938-.5938h1.1875l.875.5938.5938-.5938,1.5-1.5ZM455.7186,152.0634l-3.875-.5938,2.0625.9062,1.8125-.3125ZM320.4686,206.1572l.5938-1.7812-1.7812,1.7812h1.1875ZM299.9686,212.0947l1.1875-1.7812-1.7812-2.9688-2.4708-.6431,2.2764,5.0308.7881.3622ZM434.3124,199.9072l-1.1875-1.7812-2.6875-2.9688-.5625.5-2.7188-1.0938v4.1562h2.6875l-.5938.5938-.9062,1.5,3.5938.9062,2.375-1.8125ZM427.7499,192.5009l-.5938-1.7812-2.9688-.9062,1.7812,4.1562,1.7812-1.4688ZM418.2499,235.5947l-.875-.9062-1.1875,1.5,1.7812.5938.2812-1.1875ZM310.6561,201.4072l-2.9688,2.375h4.4688l-1.5-2.375ZM414.9686,230.8447l-3.25.5938,3.5625,4.1562,1.7812-.9062-.2812-2.6562-1.8125-1.1875ZM429.9986,229.0891l-1.03.8493.4995.5582.5305-1.4075ZM375.1561,273.6259l1.1875-1.7812-1.1875-2.6562-1.7812.875v2.6875l1.4688-.5938.3125,1.4688ZM213.1561,228.4697l2.0938-1.8125-.3125-1.7812-1.7812,3.5938ZM144.4999,235.2822l-.625,1.125,1.4688-2.3438-.8438,1.2188ZM224.7499,226.6884l.3125,1.4688,2.0625-.5938-2.375-.875ZM143.8749,236.4072l-1.75,2.75-1.1875,2.0938,2.375-3.875.5625-.9688ZM246.1561,249.5634l-.3125-1.5-.875,1.5h1.1875ZM105.8749,398.1884l.125.2188-.125-1.4062v1.1875ZM131.7186,260.8447v.3125l-.485.8424.481.0613.3165-.3099.5938-1.1875,1.1875-.3125,2.375-5.3438,2.0625-5.9375-1.7812,2.0625v-.875l1.5-3.2812,2.9688-5.625-2.375,4.1562-.3125.2812-1.1875,2.0938-1.4688,2.9375.2812-.2812-1.7812,3.5938.5938-1.5-4.1562,8.3125-.4626,1.0063,1.0782.1375.5719-1.1438ZM106.1561,401.4384l.0938.125-.0938-1v.875ZM386.7499,133.9384h2.9688l-2.6875-1.1875-1.4688.2812,1.1875.9062ZM385.8436,123.2509h-5.0312l1.7812.5938,3.25-.5938ZM396.8436,150.8759l2.0938.3125-.3125-2.375.5938,3.8438,5.9688,5.3438,4.4375,3.875,4.4688,1.5,2.0625,1.4688.9062.9062h.5938l1.1875-.9062-.2812-1.7812,1.7812-.2812,2.0625,2.6562-.5938,1.5h2.0938l5.3438,3.8438h2.9688l-.875,2.6875h-.3125l-.875,2.375,2.6562,2.9688,4.4688,2.6875.5938,4.75-1.7812-.9062v2.0938l1.1875,1.1875,4.1562.5938-2.6875.9062,1.1875-.9062-2.6562-.2812,2.6562,6.2188.9062-.5938,1.7812.9062h.0461l12.7188-33.7427-2.077-1.0385-.5938.3125-.875.2812-.5938.3125-.9062.5938.9062-.625.5938-.2812.875-.3125.5938-.2812-.5938-.5938h1.7812l.5938-.3125.3125-.2812h.5938l-.9062-.5938,1.4744-.3072.0035-.0093-6.5092-1.1835-1.7812-.875-2.0938,1.1875-2.6875-.9062-.5938-1.1875,2.4062.9062,4.1562-1.7812,4.4375,1.7812,3.3324.2891,1.2062-3.2-6.6013.2233-1.7812-.875v-.5938l-4.4688-.5938,1.5-1.1875-2.6875.2812-4.75-2.0625-.9064-2.0938-1.4688.5938-8.3438-.3125-8.5938-1.1875-3.5938-1.7812-1.4688.3125v4.4688l.2812-.5938.5938,1.4688,3,.5938-.5938.3125,2.0625.875-8.3125-2.6562-1.1875.2812-2.0938.5938-.875,1.7812-1.7812-.2812,1.1875-2.0938-3.5625-.875-1.1875-2.0938-3-1.7812-.875.5938v-.9062h-2.0938l1.7812,1.1875-2.375.3125-.5938.875,1.5.9062-3.2812-1.1875.3125.875-1.5-.5938-2.0625.9062,2.9688,2.375,3.25,1.1875ZM443.9374,185.6259l1.0625-.2812-.875.3125-.1875-.0312-.125.0312-5.3438-1.1875,5.4688,1.1562ZM435.1874,170.7822l1.5,1.7812h2.6562l.4688.1562,3.125.1562-.9062.5938-2.2188-.75-3.125-.1562-1.5-1.4688-.875-.9062.875.5938ZM433.4061,174.9384l.5938.3125-.5938-.2812v-.0312ZM432.8124,174.3759l-.875-.625.875.5938v.0312ZM383.1874,134.5322l1.7812-.3125-.9062-.5938-2.0625.5938,1.1875.3125ZM222.3749,273.0322l-.875-.5938h1.1875l-2.375-.5938,2.0625.3125-.5938-1.1875h.9062l-.3125-.3125-1.4688-.875,3.25-.9062-.875-.2812.875-.3125v-2.9688l1.1875.5938v-1.5l.3125.9062.2812-1.7812.5938.875.5938-2.0625-.2812,2.0625,2.0625-.2812.9062-3.2812.875,1.1875.9062-2.375h.875l-.875-1.1875,2.0625.5938-.875-1.7812,1.7812.9062,1.5-1.1875-.5938-1.7812.875.875,2.9688-3.875,1.1875.3125.3125-1.1875-2.6875-.3125-1.4688,1.5-.5938-1.1875-.5938,1.1875-1.1875-1.1875-2.0938,1.1875,2.0938-1.7812-3.2812-1.1875,2.0625-1.5-2.375-.5938,3.2812-.2812-.3125-3.875,1.2188.3125-.9062.875h2.0938v-.875l2.6562-.9062.3125-2.375v2.375l4.1562-1.1875-1.1875-.2812,1.4688-3.5938,1.7812-.5938v-1.1875l3.875-3.5625-1.4688-.875,2.6562-5.6562-1.1875-1.1875-2.9688,1.7812-2.9688-.5938v1.1875l-3.2812,1.5-5.0312-1.5-3,3.875-6.5312,2.6562h.5938l-1.7812,1.5.3125-1.5h.875l-3.8438-1.1875-1.5-3.8438-2.0938,2.0625-7.4062,3.5625-1.5-.875-2.375,1.1875,2.0938-1.7812-1.8125-.3125.3125-.5938.9062-1.7812,1.4688-.2812,5.3438-5.375,8.3438-2.0625,2.0625-5.9375,12.1875-12.5.3125-3.875,1.1875.9062,5.9375-1.7812,1.1875-1.7812h-1.5l3.2812-1.5,5.0625.5938,2.9688,2.375,1.1875-.5938.875,3,1.5-.9062-.9062,1.7812.9062,1.1875,2.6875-1.7812v-1.1875l.5938.5938,2.0625-2.6875,1.1875.3125-5.3438,4.75,2.0938,1.1875-1.1875,2.6875,3.25,1.7812,5.6562-5.9375-.3125,1.7812-4.4375,3.5625,2.6562,2.0625,2.0938-1.1875-2.9688,4.4688,3.5625-2.375-.5938,2.0625-2.375.9062,3.5625,2.6875,4.75-2.0938.3125,1.7812,1.4688-1.1875,1.1875.9062,2.0938-2.6875.2812.9062,1.7812-3.875-5.0312,1.1875.5938-1.1875-5.6562-1.1875-.3125-1.5,8.0312-.875,1.7812-1.1875-3.8438-1.5,5.625-1.1875-.2812,1.5,2.375-3.2812,1.1875.5938.9062.3125-.9062,1.1875,2.5558-.6584-.9926-5.1257-3.657,3.0966.3125-1.1875-2.0938-.5938.5938.875-2.0625.3125-.5938-2.6875-3.5625-.2812,2.0625-1.5,2.9688,1.1875-.5938-1.1875.9062.5938,1.4688-.875.5938-1.7812-1.75.2188.5625-.2188-1.1875-.9062.9062-1.4688,2.0938-2.6875,1.1953-.3937-.567-2.9275,1.2264,2.7103.8016-.264,1.7812-1.8125,3.875-.5938.2812-3.8438-1.4688,1.4688-.5938,2.375-.3125-3.5625-3.25.5938-1.1875-.2812,1.4688-.9062h-2.9688l4.1562-.5938v.9062l4.75-1.5.9062-2.375,4.4688-3.25,1.4688.2812-1.1875,1.7812,2.9688-.2812,2.375-2.0938,5.3438-1.7812,3.2812-.9062,2.0938-2.6562,1.7812,1.1875.5938.2812-.3125-.5938-.5938-1.7812,3.5625.3125,3,.2812-2.0938-.5938.5938-.5938,2.375-3.5625.3125,2.375v.5938l.875-1.1875,2.0938-2.9688,1.4688-.9062,1.5.9062,1.1875-2.0938-2.0938-.875,8.625-.3125h1.3175l.3452.5459.6592-.417-.0815-.1289h3.6971l12.5-1.4688,2.0625.2812-.2812.9062,2.9688-.5938,1.5.875,1.1875-1.1875-.3125,1.1875,1.1875.5938,2.0938-1.4688,2.6562-.3125.3125-1.1875.2812.3125.3125.2812,2.6562-.5938.9062-.875,2.6875-2.6875h3.8438l1.5-1.1875-4.4688-2.0625-.5938-1.5-3.875-.2812-.2812-1.2188-2.375-.2812h2.4688l-.6875-.5938h5.0625l.875,1.1875,7.4375-1.5-3.5625-1.4688h1.7812l-1.1875-1.5-6.25-.875v.5938l-.5938-.5938-2.0938,1.1875-2.0625-.5938,1.4688-.5938-1.4688-1.1875.875-.9062,2.4062.3125,2.375-1.1875,2.0625.5938,4.4688-3.2812-1.1875-1.1875h-1.7812l.875-.2812-3.8438-.625,2.6562-.2812-.5938-1.5-4.75.5938-1.5-2.0625,1.5-.9062-4.1562.5938-.9062-.2812-2.6562-.9062-.9062,1.5-.875-.9062-3.2812.9062,1.7812-1.5-.5938-1.4688,6.5312-2.0938.9062-.2812-.2812-.7812-.625.1875h-.5938l-.5938-.5938-9.8125,4.1562-3.25.875-2.0938,1.7812h2.375v.5938l-7.125,4.7812-2.9688.875,1.7812-1.1875-2.6875-.2812h3.2812l2.0938-.9062.5938-2.0938-2.0938.5938,1.5-1.4688-4.4688,1.4688.2812.5938-.875-.2812.2812.5938h-2.375l-.875,1.1875,2.0625.5938-1.7812,1.1875v-.875l-.5938.875-.5938-.5938-2.0625.9062.875-.5938h-1.7812l-.5938-.5938-2.375.5938-1.7812-.5938-6.25,1.7812h-2.9688l-.5938.5938-.5938.5938h-1.7812l.5938-.5938.875.5938.3125-1.1875-9.2188.2812-1.1875.5938,3.2645.2864-.0479.067-1.2393.1467-1.9144-.0186-.3442-.1691-1.1509.1545-1.7023-.0166-2.2094-1.3254-.5938,1.1875.1891.1125-1.7844-.0173.0953-.0952-.6552.0898-.5767-.0056,1.8256-.678-1.7812-.3125-1.1875.3125.4475.6713-4.2646-.0414.2546-.6299-.6263.6262-.5612-.0054v-.6208l-.875.2812.1576.3325-.1388-.0012-.3313-.3313-.4767.3234-1.5083-.0146-.39-.3087-.1202.3037-.0483-.0005.0891-.1782-.6973-.3491-.7695,1.5376.0034.0094-.8322.1771,1.1875-1.1875-.3125-.3125-2.6562.9062.875-1.1875-2.9688.2812-.2812,1.5-.5938-.5938-1.7812.875,2.0625-1.1875-4.1562.5938.5938-1.1875-.5938.9062-.9062-.3125-1.1875,1.7812.3125-2.0625h-1.1875l-.5938.875.5938-1.1875-1.7812.9062,1.4688-.9062-2.6562,1.5,1.7812-1.5-3.2812,1.7812.5938-.5938-1.1875.3125-1.7812.5938v.5938l-.2812-.3125-1.1875.5938.2812.5938-.5938-.5938-1.4688,1.1875.2812-1.1875h-.2812l-1.8125.5938v.9062h-.5938l-1.1875.2812.5938-.875-1.4688,1.4688-1.021-.4042-.1044-.5641-.4502-.0902.0021-.0016,6.9172-1.5962,1.5-.3125,8.3125-3.5625-1.5.3125-1.4688.875.2812-1.1875-1.7812,1.1875-.875.3125h-.3125l-.1562.0938h-.0625l-4.5312.7812-1.4688,1.5-.5938-.9062-.7181.3812-.3496-.6122-1.0148.5801-3.8862.2446-.875.5938-.5938-.875-.375.25-4.9688-1.75-3.875.5938-.9062-.5938-4.4375,1.1875-3.875,1.5-2.0938,1.4688-1.7812.5938,2.0938-.875-1.1875.2812-8.9062,4.1562-.9062.3125-2.0938,1.1875-5.0312,3.2812-4.4688,2.9688-1.6915,1.0474-.3401-.4155-3.1448,2.5732-4.9174,3.0449-.5938.2812-.3125.3125-6.5312,4.7812-.3125.2812v.2812l-1.125.6562-2.7188,2.3125-.9062.5938-3.6562,3.4062,3.6562-3.125,1.5-1.1875,7.4375-5.625,3.6005-2.3281-6.3398,5.1334-2.9169,1.9447-2.9688,2.0625-4.4688,3.875-1.7812,1.5-.9062.875-5.3438,5.0625h-.2812l-4.4688,4.4375-.875.625-7.75,8.3125-4.1562,4.75-.5.6875-.6875.5-7.125,9.2188-4.1562,5.3438-2.1875,3.0625-.0625.0936-.125.125h-.0312l-.1875.3438-.375.5312-.5.7812-.0625.0938-.0625.0311-.125.2812-.8438,1.2812-.5.5-.5312,1.0938-.0625.0938v.0312l-5.4062,8.5625,7.7812-11.25,1.1875-1.5,2.9688-3.25,1.1875-.9062-.5938.9062-.2812.2812.4149-.1334.5535.3846,1.4221-2.0481,1.4532-1.4531,1.1875-.9062-.875,2.0938,1.1875-1.1875-1.5,2.0625v-.2812l-.5938,2.375,1.1875-.5938-1.4061,1.7185.2186-.5308-.2812.5938.0624-.0624-.6561,1.5309-2.6875,5.0625-.2812.9062-3,4.4375v.9062l-.875,1.1875.875-.9062-.5938,1.5v.875l.9062-1.4688-5.0625,13.375-.2812.2812-.5938.5938v2.0938l-.3125.5938-.5938,1.4688v.0311l-.2812.5938-3.2812,5.625-2.0625,1.1875v1.1875h-.9062l-1.0514,1.6647,3.6296.4628,1.5781-2.1275,3.2812-3.5625,1.7812.9062.5938-.9059-.5938,1.1875.875.9062,1.8125,2.0625.7709,2.8211,2.3409.2985.4507-1.0258-.3183,1.0427,1.1933.1522v-1.1949l.9062.875-.2047.4094.6019.0767.4777-.4861-.4352.4915.0425.0054.9864-1.0907,1.5-3.5625-.5938,2.0938.3438-.5938h.8438l.1562-.3125h.7188l1.7812-4.1562.9062-.2812-2.375,3.8438,3.875-3.25.5938,1.7812-2.0938-.3125-2.6875,3.875-2.375.875h3.5625l3.875-3.8438-2.375,3.5625,2.0938.5938,2.375-1.7812,1.4688.875.3499,3.3331,22.1609,2.8256.083-.7838.0652.8027,4.091.5216v-2.2305l-2.0625-3.875-6.5625-4.4375,3.2812,1.7812,1.7812-1.1875,3.875,4.75,2.375.2812h1.1875l.7193,5.5038,18.8428,2.4026.9379-.4689ZM241.6874,231.7197l.3125,2.6875-1.5.5938,1.1875-3.2812ZM236.9374,233.5009l.5938.9062-1.4688,2.0625.875-2.9688ZM227.7186,234.6884l1.5,2.0938-.9062-.9062-.5938.9062v-2.0938ZM222.9686,260.5634l.5938-1.5.5938,1.1875-1.1875.3125ZM223.8749,237.3759l.5938.5938-1.5,1.1875.9062-1.7812ZM222.6874,256.6884l.875.5938h-.2812l-.9062.9062.3125-1.5ZM372.4686,138.0947l.3125-1.4688,3.4375-.75.4062-.1562.0311.0625.2812-.0625,1.1875.9062,2.9688.5938-3.8436-.5938-.5938-.8438-.4375.0938-3.4375,1.3438.2812.875-.5938.5938v-.5938ZM338.906,156.5322l.5938,1.1875.5938.875-.625-.875-.5936-1.1875h.0311ZM338.3124,155.9384h-.0312l-.2812-.9062.3125.9062ZM326.7186,142.2509l-.5938.9062v-.3125l-1.1875-.875,1.7812.2812ZM313.5604,142.3176l.1141.0156.8566,1.4177,1.7812-.9062-1.5.9062.9062.5938-2.9688-1.1875.8105-.8396ZM307.6874,159.5009l7.4375-1.5.0625.0625.2188-.0625.5.625.6875.5625,5.6562.3125,2.9688-1.5h3.2812l1.7812,2.375-2.9688-2.375-5.9688,2.0938-4.75-.5938-.6875-.875-.7188-.5625-7.5,1.7188-1.7812-.5938,1.7812.3125ZM301.4374,166.6259l-1.4688-.5938.2812-.875.9062-1.7812.875,2.0625.9062-2.6562,2.6562-.9062-.5938,2.0938,1.5-.3125-2.0938,1.7812,3.2812-1.4688,1.7812-2.0938,1.1875.5938-5.3438,5.6562-.3125.2812-1.4688.5938.5938-1.4688-.5938-.3125-2.0938,1.1875-.2812,1.5-2.6875-1.5,2.9688-1.7812ZM296.3749,163.0634l.3125.3125-.625-.4062.3125.0938ZM283.3124,195.1572l-1.7812-.2812,2.0312-.75-.25,1.0312ZM278.5624,179.1259l3.8438-3.2812-.2812,1.7812-3.5625,1.5ZM284.1874,176.4384l.5938-1.7812,1.2188-.2812-1.8125,2.0625ZM284.1874,174.3759l1.8125-1.5v.875l-1.8125.625ZM285.3749,177.3447l-.5938-.5938,5.6562-.9062-5.0625,1.5ZM294.3124,174.9697l-1.5-.9062,1.5-.3125-1.1875.3125h1.7812l-.5938.9062ZM294.5936,162.1884l.2812.1875-.5625-.1875-.3125-.3125.5938.3125ZM289.5624,174.0634l-.9062-.5938,5.0625-1.5-4.1562,2.0938ZM292.5311,160.9697l.3438.3438-.9375-.3125-.3125-.3438.9062.3125ZM293.4061,164.2509l-.5938.9062-2.375.2812,2.9688-1.1875ZM289.8436,159.7822l-.25-.1875.5625.1875.2812.3125-.375-.2188-2.2812,2.3125-1.7812.5938,4.0312-2.9062-.1875-.0938ZM286.5936,158.3134l-.625-.3125-.25-.1562,1.4688.4688.2812.2812-.875-.2812ZM282.1249,144.0322l2.9688-.5938.9062-1.4688-.3125.875,1.7812-.875-2.375,1.4688-4.1562,1.7812,1.1875-1.1875ZM287.7811,148.5009l-3.2812.3125-.4062.2812h.0936l-3.25,2.0938,3.1562-2.0938-3.4688-.2812,7.1564-.3125ZM277.9686,154.4384l.875.3125.5938.2812.9062.3125.5938.2812.3125.2188-.625-.2188-.5938-.2812-.875-.3125-.5938-.2812-.9062-.3125h.3125ZM279.031,173.5634l-1.0625.7812,1.1875-1.4688-1.1875,1.1875.875-1.7812v-5.0625l1.5-1.7812,5.6564-2.9688-3.2812,2.0938,1.1875,1.1875-1.1875,1.4688,4.75-.875-6.5312,2.6562-.625,2.9375.0311.0312-.0623.0935.031-.1248-.5624-.5625-.5625,2,1.0936-1.3125-.25,1.0938-2.6562,2.4062,1.6562-2ZM277.0624,190.4072l.3125-.2812,2.375-2.375-1.5,2.375-1.1875,2.0625v-1.7812ZM277.0624,193.3759l1.1875.9062-1.7812.2812.5938-1.1875ZM275.2811,173.1572l.3125,2.0938-1.7812-1.7812,1.4688-.3125ZM272.3124,152.3759l.5938.2812.9062.3125.5938.2812h-.3125l-.5938-.2812-.9062-.3125-.5938-.2812h.3125ZM270.8124,191.3134l2.0938-2.0938.9062-.875-.5938,1.1875-2.4062,4.1562v-2.375ZM260.1249,200.8134l.3125-1.1875,1.1875-.3125-1.5,1.5ZM262.4999,192.5009l1.7812-1.5.5938,1.1875-2.375.3125ZM264.8749,188.3447h-.875l.2812-.3125.9062-.5938,1.1875.5938-1.5.3125ZM262.8124,180.5947h.2812l2.375.3125h-1.1875l-.2812.875-1.1875-1.1875ZM266.0624,188.3447h.5938l.9062.2812h-.5938l-.9062-.2812ZM266.3749,185.0634l1.1875.2812-.5938.9062-.5938-1.1875ZM268.1561,193.3759l-.5938-.5938,1.4688-.875-.875,1.4688ZM267.5624,186.8447l2.0625-1.5.3125,2.4062-2.375-.9062ZM269.6249,151.4697l.625.3125h-.3125l-.9062-.3125h.5938ZM269.3436,180.3134l-1.5.5938v-1.7812l1.5,1.1875ZM267.2499,150.8759l.9062.3125h-.3125l-.875-.3125h.2812ZM263.6874,144.3447v-.9062l.9062.9062,1.3114-.7286.0828.5089.3245.0649-.8982.6489-.2267.0996-3.2812-.5938h1.7812ZM266.0936,150.5947h-.3125l-.9062-.3125h.5938l.625.3125ZM266.3749,171.9697l.2812-2.6562,1.5-.5938v3.25l-6.25,5.375,4.4688-5.375ZM262.2186,179.4072h.2812l.9062.9062-2.0938.2812.9062-1.1875ZM260.4374,182.9697l1.1875.9062h-2.6875l1.5-.9062ZM258.3436,189.8134l-1.1875-1.4688-1.1875.5938,1.1875-.9062h-2.375l1.1875-.875h.2812l.9062.2812,1.4688.3125-.2812,2.0625ZM253.2811,181.1884l.5938-1.1875,1.7812.5938-.2812,1.1875-2.0938-.5938ZM255.9686,176.1572l.875-1.7812.5938,1.7812h-1.4688ZM255.3749,171.9697l2.9688-.5938-2.375,1.1875-1.7812-1.4688,2.6562-.5938-1.7812.5938.3125.875ZM253.5936,148.1884h1.7812l.5938.3125-.5938-.2812h-1.7812l-.5938-.3125.5938.2812ZM250.0311,181.1884l-1.1875-.2812v1.1875l2.9688-.5938.5938,2.375-3.5625-.5938-.5938-2.6875,1.7812.5938ZM245.2499,187.1572l-.2812,1.4688,1.1875,1.5-1.7812-.3125.875-2.6562ZM243.1874,185.0634l.875.5938-2.375.875,1.5-1.4688ZM160.2499,213.3133l-.5938.2812.5938-.3124v.0311ZM155.1874,232.3134h.0312l-.3125.5938.2812-.5938ZM154.6249,233.8447l-.0312.0625v-.4062h.0312v.3438ZM154.9061,251.3447l.3125-1.1875.5938.2812-.9062.9062ZM161.1561,252.8447l-.5938.2812.5938-.3125v.0312ZM167.9999,209.4384h-.0312v-.5938h.0312v.5938ZM168.5936,208.2509h-.0312l.3125-.5938-.2812.5938ZM189.2788,232.6518l1.533-2.0664-1.7181,3.228.875.2812,1.1025-3.859,1.5358-2.0702.6401-.3201-3.5597,8.343-2.9688,3.2812-1.1875,1.1875-.9062-.3125v-.2812l.9062-2.4062,2.6562-2.9688-2.375,2.0938-3.8438.5938-.4565-1.0957h.2306v-.0054h1.3906l.2002-.0557,5.9453-3.5674ZM184.9374,231.9379v-1.0933l.6447.384-.6447.7092ZM180.5017,235.4999h-.2451l-.7878-.3942,1.033.3942ZM180.0642,236.2802l-.0127.0128.0035-.0128h.0092ZM178.3749,234.6884l.7191.2743-.449.1261-1.0977,1.7561.8275-2.1565ZM174.2186,207.9384l-.5938.3125.9062-1.5-.3125,1.1875ZM174.2186,201.7197v-.0312l1.7812-.875-1.7812.9062ZM178.0936,245.4072l-.5938-1.7812-1.1875-3.5625.8137-2.1207.5348,5.0774-.054.0135.0957.3822.0352.3336.0471-.0049.4165,1.6626h-.1078ZM178.3695,242.3028l.7198-2.572-.6665,3.0793-.0533-.5073ZM178.4727,243.283l-.0388-.3689.5348-1.0695v1.1875l.2245,1.7058-.2932.2512-.4272-1.7062ZM179.8749,252.2197l-.9062-1.7812.6819-3.5088.5072,1.1666-.3818,2.2899.1631.3848.9203.637-.9844.8118ZM182.5835,251.6528l-.0211-.0269-.9062-.875-.1715.1414-.1591-.1102-.5958-1.3705.7083-4.2471-.3037-1.3472-.6318-.2012-.2495.2139.2157-1.1104,1.5.9062-.9062,5.3438.5938.5938.3125-2.0938.5938,4.1562.0227.028-.0016-.0011ZM189.0936,259.9697l-4.6781-5.9763v-.0784l.8031.9922,4.1562,4.75-.2812.3125ZM190.5624,237.6572v.9062l-.875.9062.5938-1.5.2812-1.5v1.1875ZM191.1561,246.0009l1.5-1.5.875.3125-2.375,1.1875ZM193.2499,221.6259l.2555.8875-2.5667,2.8231-1.5638-.1481,1.5-.5938-.9062-1.1875-5.3438,2.0625-2.9688.3125v-1.7812l5.3438-3.2812h4.1562l.5938-1.7812,2.6875,1.1875-1.1875,1.5ZM214.9374,205.2822h-1.4688l.5938-1.5,2.375-2.0625-2.0938,2.0625.5938,1.5ZM228.0311,198.4384l.875-1.5.5938.3125-1.4688,1.1875ZM230.9999,199.0322v-2.375l1.1875.5938-1.1875,1.7812ZM233.6874,191.0009l-11.5938,3.5625-2.0938-.5938,4.1562-.2812v-1.1875l2.6875-.5938v-1.1875l4.1562-2.0938v.9062l2.0625-1.5,1.5.5938-2.0938,2.0938,2.6875-.3125-1.4688.5938ZM238.4374,173.1572l-1.5.5938,1.7812-2.9688-.875,1.7812.5938.5938ZM236.6561,148.1884h1.1875l.5938-.2812-.5938.3125h-1.1875v-.0312ZM237.2499,186.2509h-1.5v.9062l-.2812-.625h-.9062l-2.0938,1.2188,1.2188-1.2188,2.0625-1.7812-.2812,1.1875,1.7812.3125ZM232.5879,175.6181l.0361-.0358-.1241.2623h-.0312l.1193-.2266ZM231.8749,186.5322h.5938l1.5-2.0625h.9062l-.5938,1.1875-1.2188.875-.875.625h-4.1562l3.8438-.625ZM228.0311,173.7509l1.4688-2.9688,1.1875-.2812-2.9688,3.8438h-.875l1.1875-.5938ZM226.1874,189.0009l1.5312-1.25.3125.5938-1.8438.6562-.25.2188-4.4375,1.5,4.6875-1.7188ZM221.3247,187.1572l.0259-.0312h2.2118v.0312h-2.2377ZM222.6874,163.0634l2.9688-1.1875-3.2812,1.7812.9062-.5938h-.5938ZM219.9999,182.3759l2.0938-.875,1.7812-2.0938-.9062,1.7812-1.7812.9062-.2812.5938-.9062.2812-2.0938,2.375,2.0938-2.9688ZM217.0311,161.5947l2.0625-1.8125-.2812.9062-.9062.3125-.5938.5938-1.7812.875,1.5-.875ZM216.4374,187.7197h.875l.9062-.2812-.9062.3125h-.875l-.9062.2812.9062-.3125ZM215.5311,197.8447l.3125,1.1875-2.9688,1.5.2545-1.1519,1.2849-.7711.5231.423.5938-1.1875ZM212.2811,166.9384l-.5938,1.7812-.9062-.3125,1.5-1.4688ZM209.9061,186.2509v1.1875l4.75-.9062-6.8438,1.8125,2.0938-2.0938ZM211.0936,202.3134l-1.0385.8306.562-.8306h.4764ZM209.3124,211.5009l.2812.5938.5938.5938-1.1875,1.2188h-.2812l-1.5-.5938,2.0938-1.8125ZM207.4999,217.4695l.625-1.1875-.5938,1.1875-.3125.875.2812-.875ZM206.3124,221.3134v-.5938l.9062-1.7812-.875,1.7812v.5938l-.3125.5938.2812-.5938ZM203.0624,191.5947l1.4688-.2812-3.8438,2.375,2.375-2.0938ZM198.5936,215.6883l1.7812-.9062-.2812-3.875.875-1.1875h.9062l.875-2.9686,1.4341,3.874-.2029.3652-5.3875,5.9261v-1.228ZM196.8124,218.657l.8478-.714-.908.9988.0602-.2848ZM203.9536,214.7197l.0791-.2363v-1.9805l.5079-.9143.303.8186-.5938,1.1875,1.1875.3125h-1.1875l.2812.5938,1.1875-.3125-2.375,4.4688-2.9688,2.375-1.1875,2.375-2.9432,1.3784,7.7095-10.0659ZM201.8749,239.7509h-.3125l-.2812-1.1875h.875l.9062.2812-1.1875.9062ZM203.3436,243.6259l-.5938,1.4688-1.1875-.5938,1.7812-.875ZM204.5311,246.2822l1.1875,2.375h-.2812l-4.1562-1.4688,3.25-.9062ZM205.1249,240.0634l-.875-1.2188,1.4688-.5938-.5938,1.8125ZM195.0311,250.1572l1.1875-2.6875-.5938-.875,1.1875,1.4688-1.7812,2.0938ZM197.9999,259.3759l1.1875-2.0938-.875-1.1875,1.7812.9062-2.0938,2.375ZM200.6874,259.9697l-1.1875.875,1.1875-1.4688.5938-.9062,1.7812-.2812-2.375,1.7812ZM206.9061,258.7822l-3.8438.5938,3.8438-3.5625v2.9688ZM207.2186,254.3134l-1.1875.3125,1.1875-1.5v1.1875ZM217.9061,249.8447l-.875.9062-.3125-1.5,1.1875.5938ZM210.4999,266.8134v-1.1875l1.4688-.625-1.4688,1.8125ZM212.2811,254.3134l1.7812,1.1875-1.7812.3125v-1.5ZM216.1249,262.3447l.3125-.3125.2812,1.5,2.0938-1.5-2.375,2.6875v1.7812l-.9062-2.0938.9062-1.7812-1.5-.875-1.1875,1.4688v-1.1875l1.7812-.5938,2.375-3.8438,1.5-.9062-3.875,4.75.5938.9062ZM248.5311,222.8134l1.7812-.5938-2.6562-.3125.875.9062ZM380.4999,123.8447l-1.1875-.3125.3125.5938-1.7812-.2812-1.2188.875-.875-.5938-2.25.625,3.75.2812,3.25-1.1875ZM107.9374,334.5634l-.0938,1.3438.0938-.75v-.5938ZM108.2499,417.5009l.2812.5938-.2812-1.1875v.5938ZM630.1021,390.0097v1.658l-.1074.0378.1074.3054v.3191h.1123l1.2568,3.5728.0332-.0117.1519,1.0786.2117-1.2068.3386-.1194-.1637-.4653,1.9192-.2616-.0133.9828h.6587l.9238,3.4766,1.1875,1.1875,1.4287-4.0737.3833.0547.4072-2.8525-.438-.0625v-.5034l-.5938-.9062-.5938-4.4375-.3125-1.1875-1.2031,1.3931h-.3618l.0002.4185-.2166.251-.875,3.2812-1.5-2.6875-.5938-.875-.2812,2.375-.5938-1.7812-.3125-.9062-.3904-3.5825-.0945-2.3643-.0693-.2065-.1379-.1993-.1389-1.274.0024.0012.1699-.4985.125-.0625-.2568-.5137v-.2041l-.1133-.2754-.2969-.2974-.3003.1851-.874-1.9893.5938-4.1562.9062,2.6562.5938-3.5625,1.0435-1.5654.6768.9307.2578-.1876.6782.8224-.2812-2.375.5938,1.7812v-.2944l.4146.8271.6973-.3496-.3467-.6909.0986-.0986.1143-.2759v-1.717l.0664-.0051-.0996-1.2576.2427-.6067v.3125l.875,4.1562.3125-1.7812-.3125-5.0625-.5938-.2812-.7251.725-.0293-.3695.0687-.4474.0919.0919.593-2.9653-.5931,3.2466.5938-.2812.5938-1.1875-.5938-.3125v-.2812l.3125-.3125v-.2812h-.3125l.3125-1.5-.3124.906v-1.1873l-.2812-.9062.2812-1.1875-.5938-9.2188-1.1875-4.1562v-.9062l-2.9688-5.0312h-1.1875l-1.1875,2.6562h-3.25l-1.5-3.5625-.3125-3.5625-.875-1.1875.2812-.5938-.5938-.2812v-2.4062l-.575-2.8746.0697-.2325.4569-.9153-.5454-.272v-1.3306l-.5938-.9062.9062-.875-.5938-2.6875.2812-.5938,1.1875,2.6875.9062.5938v-1.1875l-1.7812-3.2812.2812.3125-.5938-5.0625-.5938-.9062v-2.0625l-.2812-.9062v-1.4688l-1.1875-1.5.875.3125-.5938-1.5.3125-.2812-1.7812-1.5,1.4688-1.5-.5938-.2812-.5938-2.6875.3125.3125-.9062-2.375.5938-.3125-.875-3.8438-.9062-1.5-.2812.5938-.5938-3.2812-.5938-1.1875.2812-.2812-1.4688-2.9688-.3125.5938-.5938-2.9688-.5938-.5938-.2812-1.5-.625-.2812v-1.1875l-.875-1.1875.2812-.625-1.4688-.875-.9062-2.375.3125,1.1875-.3125-.9062-.5938.3125v-1.5l-3.25-5.0312-.3125.2812-1.1875-3.5625h-.5938l-.875-1.7812-.3125.5938-.5939-2.0938-.5938-.5938.5938,2.0938-1.4688-3.2812v1.1875l.2812.5938-.3125-.5938v-.5938l-.2812,1.5,1.1875,3.8438-3.2812-7.125-1.1875,1.7812.3125,2.0938-.9062-5.3438-1.1875,1.7812-3.8438-1.5-.3125.9062v1.7812l-.875-.5938-2.375-3.5625h-.0311l-.0312-.0312-.8438-1.4688h-.5938l-.3125-1.5-1.1875-1.1875-2.0625-4.1562v-1.4688l-1.7812-1.1875.2812,5.0312,1.5,2.6875,1.4688,3.2812-2.6562-.9062v2.9688l-2.0938-1.1875-.875-4.1562-2.9688-4.1562h-.0312l-.0311-.0312-2.9375-4.125-1.4688-2.6875,1.4688-.3125,3.875,4.4688-.5938-2.0625,2.6875,3.5625-5.375-9.2188-.174-.7417.4497-.4502-.7252-.7242-.738-3.1464,2.6875,2.375.2812-.875.9062,1.7812,1.5,1.7812-.625-1.7812.9062.875-.5938-1.4688-.3125-.5938-.0721-.5366.1926.4487.7158-.3076-.6821-1.5894,1.9396.4849-.2812.5938,1.1875,1.5.5938-.3125-.9062-.5938,1.5.9062-.5938-1.1875,3.5625,3.25.875-.2812.3125,1.1875.5938-.3125-2.0938-2.9688.5938.3125-1.1875-1.1875.3125-.5938-.9062-.3125-.2812-1.7812-1.1875-1.1875-.3125-1.1875-2.9688-2.6875-2.6875-1.1875-2.5305.7725-.4183-.4185-.5518.5518.4131.4133-.475,1.6497-1.4688-1.1875-5.6562-7.4062-2.6875-1.1875-2.3634-2.6692.2046-.0681-.2461-.7402-.3823.1272-.2397-.1799-.1538.2048-.6302-.4067-.1788-.2505-.1664-.7986-2.9688-2.0625.3125-2.6875-5.375-5.9375-12.4688-9.2188-9.8125-5.3438-1.7812-.9062-3.25-.2812h-.0311l-2.375-.3125-5.9375-2.375-2.0625,1.7812-.3125-1.1875-1.1875-.5938-.5938,2.9688-.2812.3125,1.4688,2.375h1.1875l2.9688,2.6875-2.9688-.9062,2.9688,1.7812-2.9688-.2812,1.5,2.375-.5938.875-8.625-5.9375-6.25-2.9688-8.625-3.875-5.0312-5.0312.2812-.9062-1.1556-.2167-4.6237,36.262,3.1227-.389,4.1562-5.9375-2.375-7.7188h.2812l2.375,5.9375,4.1562-.875,5.0625,2.6562,5.6562,8.3438,1.1875,5.0312.875,1.5,1.5-.5938-.8125,1.2812-.6875-.6875-1.1875-1.1875-.875-5.3438-8.3438-9.5312-5.625-.5938-2.6875,4.75,2.9688,2.0938-.2812,2.6875v-2.6875l-2.0938-1.5-2.375,2.6875-4.0698.6426-7.0144,55.0115.9905-.6541h.0001l-1.009.7988-4.9033,38.4552,7.4662-1.4459,4.0709-3.9331,6.8438-3.5625,5.3438,1.1875,1.1875-.9062,2.375-1.1875,7.75-.5938,2.9688.5938h-5.0625l-7.4375,1.7812-1.7812.3125-4.4375-.9062-5.9688,2.6875-4.0211,4.1723,86.6202-16.7747-99.2769,44.9231-4.6338,36.3406c.4834,9.7252-.7051,19.6674-3.7524,29.4297l-.6489,5.0887,4.9405,1.8622.2725-5.4807,3.875-2.0625.1675-2.3079.424.0942.1689-.7612-.5359-.1191.0568-.781,4.1562-4.75,1.1562-.4062v-1.0304h.0001v1.0314l3.9062-1.375,1.1875.875.9062,5.3438h1.7812l-5.3438,2.4062-.3125,2.9688,2.375.5938-3.875,1.1875.3125,1.1875h2.0938l2.9688,3.8438,5.0312-.2812v2.9688l.6665.7915-.6016.7737.6152.479.4999-.6428,1.8199,2.1611-.8347-2.6538,4.126-1.5615,2.3337,1.2466-2.0625,3.2812-3.2812-.5938.433,2.8035,2.6046.9818.5249-.2227.5189.6161,66.7527,25.1614-.0841-2.3085-3.5625-3.5625,3.5625,3.2812v.2812l.095,2.3127,8.1337,3.0659,1.2713-1.5035-.2571,1.8858,5.6741,2.1387,1.4268-2.837-.9062-4.1562,1.5-1.5-.5938,2.0938.5938.875.875-1.1875-.2812,2.375,1.5.9062.5938,3.8438,1.2099,1.8177,24.8914,9.3824.0237-.2001v-1.4688l1.5-1.7812-1.5-3.875v-3.5625l-.2812-.5938.3125.5938v-3.2812l-2.4062-4.4375-.2812-2.375,1.4688-2.4062v-2.9688l2.0938-4.1562-.5938-1.4688,2.0938-9.8125.2812-6.25,1.5-5.9375v-4.75l-1.1875-1.5.875-3.875-.2812-2.375,1.1875,1.1875v-2.6562h1.1875l-.0399-.1007.2484.3478.6348-.4531-.332-.4648,4.5859-8.0955.7129-.1418-.0864-.4331,1.9951.9976-.2812-2.375.5938,1.7812,1.1875-2.0625,1.1875.5938-.5938,2.0625,1.4688-.2812-.5938-1.7812,2.9688,3.25,1.7812,5.9688v-2.375l.3125,2.0625v-1.4688l.875-.3125-.2812-1.7812h.875l-.5938-2.375.5938-2.6875-.875-.2812.875-.3125v-2.375l-.875-2.0625,1.7812,1.1875.2812-1.5,2.0938,4.4688,1.7812,2.375-.2812-1.5,1.4397,1.2123.62,1.8269.3153,1.7421.1819-.2776.5542,1.6327.1389,2.2074.2271.4463ZM630.8813,391.4627l.097.6896-.097-.2758v-.4138ZM633.9487,370.082l-.1836.1831-.0151.0935v-.7327l.1987-.4971v.9531ZM631.9688,353.0383v1.1501l1.1875,2.6562v.3125l.2812,5.6562.418.418-.1003.6636-1.1926-1.9878.875,1.1875-.2812-4.1562v-1.7812l-1.5044-3.0088.3169-1.1101ZM630.1875,350.3134l.1012.2748-.2626.0875-.2031-.575.3645.2126ZM629.6631,351.9924l-.0693.1023-.0793-.5237.1487.4214ZM582.9061,252.2509l-.5938-.3125.5938.2812v.0312ZM489.2811,187.1259h2.9688v.0312h-2.9688l-.5938.2812.5938-.3125ZM482.4686,188.0322l.5938-.3125h2.0625l.5938-.2812-.5938.3125h-2.0625l-.5938.2812ZM491.9686,195.7509h-2.9688l-5.625-.2812.0311.2812.5312,3.2812h-.2812l-.25-3.2812-.0625-.2812h.0312l-.0311-.3125,8.9062.5938.3125.9062-.5938-.9062ZM474.4374,268.8759l-.5625-.1562-.0311.1562-2.3748-.875,2.4059.7188.25-1.9062,2.0938-.5938-2.0938.875v1.5l6.8438,5.0312,2.0938,2.0938-8.625-6.8438ZM487.4999,253.4384h-.5938l-3.5625-1.7812h-.875l-3.5938-1.8125,3.5938,1.7812h.875l3.5625,1.7812h.5938l4.75,2.4062-4.75-2.375ZM492.8438,300.9697l-.2814-.5938.3125.5938h-.0311ZM503.5624,228.7509l2.375-2.375-2.6875-3.5625,2.9688,3.8438-2.6562,2.0938ZM512.7811,186.5322l-.3125.625-.5938-.625h.9062l.5938-.875,1.7812.5938.875.2812-1.4688-.5938,1.1875.3125-.5938-1.1875,1.1875,1.4688.2812.3125,2.0938,1.7812,4.4688,3.875h1.1875l.2812.5938,1.1875.5938,5.3438,2.9688,2.5098,2.7463-.0463.0881.2439.1281.0725.0792.3248.458.0746.5546-4.3668-4.3668-2.375-1.4688-.2812.5938-1.0312-1.0312-.1562-.1562v-.3125h-.3125v-.0938l-1.7812-.5-8.3125-6.8438h-2.9688ZM525.8436,228.1572l-.5938-.2812h-.5938l-.5938-.3125.5938.2812h.5938l.5938.3125ZM512.1874,265.0009l5.9375,3-5.9375-2.9688v-.0312ZM518.4061,291.1572l-1.4688-5.0312h.875l.3125,3.5625,2.375.5938,2.0938,2.0938-4.1875-1.2188ZM529.7186,266.5009l-.3125.9062v-.9062l-8.625-3.875-.2812,2.375,1.6875.6562.0936-.0312.0625.0938,2.0312.7812h-1.5l-.5312-.7812-.1562-.0625-2,.8438-.2812-2.6875.2814-1.7812,2.0938.5938,5.9375,2.375-1.1875.3125.9062.3125h2.375l1.7812,1.7812-2.375-.9062ZM529.9999,254.9072l-6.8125-5.6562.2812-.875,5.6562,3.25,2.375,3.2812.5938-.5938,3.5625,7.7188,2.0938,2.0938.5938,3.2812-.9062,2.0625-.5938-3.875-2.6875-4.75-4.1562-5.9375ZM538.0311,279.5947v-.0312l1.7812.9062-1.7812-.875ZM536.5624,277.5009l1.7812.2812,2.0625,2.6875-3.8438-2.9688ZM538.9374,204.9697l.2858.7896-1.3566-1.9124,3.1333,2.9041,2.9688,4.1562-5.0312-5.9375ZM545.4686,239.7509l.5938-.5938,2.0938,2.9688-2.6875-2.375ZM548.0017,208.2509l-.8965-.5786-.3617-1.2036,2.2876,1.7822h-1.0294ZM557.3436,238.8759h-.5938v-.0312h.5938v.0312ZM558.8436,239.4697h-.5938l-.5938-.3125.5938.2812h.5938v.0312ZM560.0311,240.0634h-.2812l-.0312-.0312h.3125l.5938.3125-.5938-.2812ZM473.4686,353.8445h.0001v.5302h-.0001v-.5302ZM461.0625,371.0319l-2.125,2v1.3744-.0004s-.0001-1.375-.0001-1.375l2.125-2,.9821-.6799.0005.0007-.9824.6802ZM460.8125,347.7197l-.3748,1.249-.0004-.0002.375-1.25,2.9062-2.75.7499-2.4056.0002.0006-.75,2.4062-2.9062,2.75ZM473.5938,364.2507l-1.5.9062-2.625.625-2.875,1-2.2162,1.7238-.0009-.0004,2.2169-1.7244,2.875-1,2.625-.625,1.5-.9062,1.2396-.0679.0006.001-1.2401.0679ZM475.6249,370.2508l-.9062.2812.9062-.3124v.0311ZM475.3124,358.3447l1.7812,1.1875-1.1875,1.1875-.5938-2.375ZM476.2186,369.657v-.0311l.5927-.2808-.5927.3119ZM477.6874,369.0633l-.8733.2806.8733-.3118v.0311ZM478.2811,368.4697v-.0312l.5938-.2812-.5938.3125ZM480.3749,367.282l-.5938.2812.5938-.3124v.0311ZM480.823,361.6284l-.7606-1.5037.7662,1.4969-.0056.0067ZM481.25,363.6257l-.0762-.0952.0002-.0005.0758.0947.0511-.2766.0032-.0044-.0542.282ZM481.4062,362.782v.0311h0s-.0435.2261-.0435.2261v-.0243l.0433-.234-.0433-.0857v-.0303l.0433.0847.0936-.5349h.0002l-.0938.5361v.0311ZM481.8438,363.6882l-.4366-.8733.4679.8733h-.0312ZM482.4374,364.282h.0311l.5938,1.1875-.6249-1.1875ZM546.3749,355.9697h-.0311l-.2814-.5938.3125.5938ZM532.9686,308.1259l.8579-1.6719.0007.0171-.8274,1.6548-.3125.875.2812-.875ZM523.7811,330.0947v.0312l-.5938-.3125.5938.2812ZM494.3436,356.8447v.0312l-.5938.2812.5938-.3125ZM491.9686,358.6259l.5938-.2812-.5938.3125v-.0312ZM498.2186,383.5947l-.1826,2.4473-5.0267-1.2056-.1113-.0103-3.6211.1875-.1675.0823-.1095-.8762,2.0625-1.5-1.1875-1.7812h1.5v-.9062l-.3125-2.0625,2.375-.5938.9062-2.0938-.3125,3.875.9062,1.7812,3.875.5938-.5938,2.0625ZM501.7811,319.1259v-1.8125l1.1875-1.4688.2812,2.0938-1.4688,1.1875ZM507.4062,314.3447l-.2814-.5938.3125.5938h-.0311ZM508.5938,414.5322l-.2814-.5938.3125.5938h-.0311ZM520.7812,327.4384l-.2814-.5938.3125.5938h-.0311ZM521.9998,328.3134l.2812.5938-.3124-.5938h.0311ZM529.9999,343.4697l-6.2188,5.0625-.5938,5.0625,2.6562,3.8438-3.5625-1.4688-.2812-3.875.5938-3.25,6.8125-5.6562.9062-2.9688-.3125,3.25ZM534.1562,341.6884l-.2814-.5938.3125.5938h-.0311ZM534.4686,325.6572l-3.2812,1.1875-.5938-2.6875-.5938-2.6562-2.6562.2812.5938-1.7812.2812,1.5,2.0938-.9062.2812,3.5625h1.5l-.3125,1.5,2.6875-1.5v1.5ZM535.0624,335.1572l2.375,1.5-2.0625.5938-.3125-2.0938ZM539.8124,359.2509l-3.25,2.375,2.0709-4.1904,1.4843-1.3889-.3052,3.2043ZM540.7186,300.3759l-1.5.3125,1.5-1.7812v1.4688ZM541.9061,304.2509l.875-.3125.9062,2.6875-1.7812-2.375ZM546.0624,423.7509l-.2812.5938-.625.5938.5938-.625.3125-.5625v-.0312l.5938-.2812-.5938.3125ZM548.156,421.9697l-.3125.5625v.0311l-.5938.2812.5938-.3125.2812-.5938.5939-.5936h.0311l-.5938.625ZM548.7186,358.9384l-.5938-1.1875-.5938-.2812-.2812-.5938.3125.5625.5625.3125h.0311l.5938,1.1875h-.0311ZM551.9999,427.5947l-2.375,5.6562,2.375-5.9375v.2812ZM560.9373,374.6884l.5938,1.1875h-.0311l-.5938-1.1875h.0311ZM555.5624,337.2509v-2.0938l.9062.3125-.9062,1.7812ZM556.4686,291.7822v-.0312l.5938.3125-.5938-.2812ZM558.2498,411.8447l.2814-.5938h.0311l-.3125.5938ZM560.0311,409.782l-.462.2189.0004-.0071.4617-.2429v.0311ZM560.3124,373.8134h.0311l.2812.5938-.3124-.5938ZM561.5311,407.9697l-.5938.625-.3125.5625.2812-.5938.5938-.5938.3125-.5938-.2812.5938ZM562.0938,376.7822l-.2814-.5938.3125.5938h-.0311ZM562.4061,241.2509l-.5938-.3125.5938.2812v.0312ZM568.3436,386.0009v-.0312l.5938.3125-.5938-.2812ZM571.9062,303.6572l-.2814-.5938.3125.5938h-.0311ZM572.8123,393.7197l.2814-.5938h.0311l-.3125.5938ZM574.5936,305.7509l-.5938-.3125.5938.2812v.0312ZM584.7185,374.0947v.5938h-.0311v-.5938h.0311ZM582.9061,314.3447l-.2812-1.4688v-1.1875l2.0625.2812-1.1875,1.7812-.5938.5938ZM584.6874,413.6259h.0311l.2812.5938-.3124-.5938ZM585.2811,373.2197h.0311l-.3125.5938.2814-.5938ZM585.2811,415.1259h.0311l.2812.5938-.3124-.5938ZM585.9061,372.0322l-.3125.2812.2812-.3125.3125-.5625-.2812.5938ZM586.4998,371.1259h-.0311v-.5938h.0311v.5938ZM589.4686,360.7195l-.9062-1.1875.9062-2.0624v3.2499ZM590.0624,319.7197l-.5938-.3125.5938.2812v.0312ZM593.625,261.4384l.0936.1562.5.1562.2812.875-.7812-1.0312-.0625-.0312.25,1.375-.5938-1.5.3438.125-.0311-.125ZM593.6249,365.1883l-.9062-1.1875,1.1875-.9062-.2812,2.0938ZM594.4685,265.0634l-.25.5625v-1.2188h-.5938l-.3125-1.1875-.5936-.2812,1.1875.2812.5625,1.8438.0311-.0625.3125,1.2188-.3438-1.1562ZM599.2811,329.8134h-.0311l-.2814-.5938.3125.5938ZM597.4202,385.2151l-.5453-.4017.6082-.1316-.0629.5333ZM597.4686,262.6259l-.5938-1.1875.9062-.2812.5938,1.7812h-.3125l-.2812.2812-.3125-.5938ZM598.3749,268.8759l.2812,1.7812h-.5938l.3125-1.7812ZM598.6873,339.6259h-.0311v-.5938h.0311v.5938ZM599.2811,336.9384v.3125l-.3125.5938.2812-.5938v-.3125l.3125-.5938-.2812.5938ZM601.6561,268.5947l.5938.2812.5938,2.0938-1.1875-2.375ZM603.4374,278.4069l-.3125,1.1562v.0312l-.875,3.25-.3125-2.0625.9062-.9062.25-.5312-.0311-.125-.2188-.2188v-.8438l-.3126-1.5623.3125.5938v.0624l.5938,1.125v.0311ZM604.6249,280.4697l-1.1562-2.0312,1.1562,1.125v-1.75l.875,1.4688-.875,1.1875ZM606.4061,294.1572l-.3125-3.2812.5938,2.6875-.2812.5938ZM628.4272,349.7914l.2603-.353.1663.0969-.4265.2561ZM144.8124,515.5947v-.3125l-.3125-.3125.3125.625ZM154.6249,530.1572l-.3125-.5938-.1875-.0938h-.0312l.2188.375.9062,1.5-.8125-1.4062.2188.2188ZM106.7499,406.7822l.0625.125-.0625-.5v.375ZM110.6249,344.1572l-.1562.8125.1562-.2812v-.5312ZM110.6249,343.1884v.9688l.2812-1.5625-.2812.5938ZM111.2186,317.3134l.2812-1.1875.3125-1.4688-.5938,2.375v.2812ZM107.6561,413.3447l.2812.5938-.2812-1.125v.5312ZM133.2186,494.7822l.2812.5938.2812.25-.5625-1.125v.2812ZM105.8436,395.1259l-.2812-3.1875v2.6562l.2812.5312ZM107.9374,415.4072l.1875.375-.1875-1.8438v1.4688ZM132.3124,493.0009l.3125.5938.2812.2812-.5938-1.1875v.3125ZM108.2499,416.0007v.3125l.5938,2.6562-.9062-7.9998-1.4688-11-.9062-8.3438v.3125l.3125,3.25.25,3.5312.0312.0625v.2812l.25,2.8438.0625.125v.625l.1562,1.7812.125.2812v1.1875l.1875,1.1875v.0311l.125.25v.6875l.1562,1.1562.0312.0314.0938.2188v.5312l.2188,1.4688.0938.0936v.5938l.2812,1.7812.25,1.9688v.0311l.0625.0625ZM226.2499,228.4697l-1.1875-.3125h-.9062l2.0938.3125ZM113.8749,306.9384l.3125-1.7812-.5,2.5312.5-1.6562-.3125.9062ZM113.6874,307.6884l-.4062,1.3125.3125-.875.0938-.4375ZM121.3124,296.5322l-1.1875,3.25-.2812,2.6875-.3125,2.9688.9062-3.875.875-5.0312ZM116.8749,296.1884l-.25.7812-.0312.0625v.0625l.2812-.5625v-.3438ZM121.0311,450.1884h.5938l-1.1875-2.375.5938,2.375ZM120.498,287.6564l.4819.1375,1.291-4.5205.5957-1.7827.0046-.1548.4222-1.2126-.8811-.3322-.286.8573-.0134.4501-.2069.59v.2163l-.0653.1956-.2472.4944-1.75,5v-.5938l-.1562.5938-.0625.1875-.0938.4062-.0625.0625-.0312.0312-.1875.2188-.1875.9062-.0312.0625-.0938.5-.2812.9062-.3125.5938-.2812.9062-.3125.875,2.375-4.75.3732-.8445ZM117.4686,294.4072l.2812-.8438v-.3125l-.2812.5938v.3438l-.3125,1.1562.3125-.9062v-.0312ZM386.1561,465.0634l4.4688.875,5.3438-.5938.5938-1.4688-2.0938,1.1875-8.3125-1.7812v1.7812ZM131.9991,283.4047l-.555-.2092-.3193.8367h.5938l.2805-.6275ZM170.0624,266.9505l1.0262.1309-1.0262-3.8617v3.7308ZM115.9686,299.1884l.3125-.5938v-.4688l.2812-1-.2812.875-.5938,1.7812-.125.7812.125-.4688.2812-.9062ZM131.7186,288.7822l1.1875-3.25-1.4688,3.25-.9062.9062,1.1875-.9062ZM115.5624,300.5634l-1.375,4.5938,1.1875-3.5938.1875-1ZM130.5311,285.2197h.3125v-.5938l-.3125.5938ZM130.5311,285.2509l-.5938,1.1562h.3125l.2812-1.1562ZM116.8749,295.9384v.2188l.1875-.5938-.1875.375ZM278.8436,444.5322l.5055-.1467v.259h1.0762v-.5712l3.4808-1.0099.4733.1821.4128-3.2375-7.1212,1.3791,1.1725,3.1451ZM243.4686,460.5947l.3125-.9062-1.7812.5938,1.4688.3125ZM240.4999,462.6884l1.1875-2.0938-2.9688,1.5,1.7812.5938ZM352.0936,464.5009l1.2188.125-.125-1.1875-1.4375-.125.3438,1.1875ZM234.8749,459.4072l-.9062.875,1.7812.3125-.875-1.1875ZM384.2499,459.7822l-.4564-1.4055c-.4091.0544-.817.1138-1.2271.1623l1.6835,1.2432ZM354.2032,457.0654c-1.6572-.3714-3.3115-.7941-4.9617-1.2693l4.5084,2.4236.4533-1.1543ZM123.0936,308.7197l.5938-.3125-.2812-1.7812-.3125,2.0938ZM121.0311,310.7822l-.5938,3.2812-.5938.5938-.9062,2.9688.9062-7.125-.3125-.3125-.875,3.2812v5.9375l-.141.4597-.7148,1.1628.3018.1857-.6334,2.0668h.5938l.5938.875-.3125,7.75.5938.2812.5938-5.9375.5938,1.1875v-2.0938l.5938-1.7812.3427-6.3489.1873-.3044-.1653-.1018.2291-4.2449-.2812-1.7812ZM118.0624,363.407l.5938.875.2812-1.7812-.5938-.5938-.2812,1.5ZM231.2811,458.2197l2.6875-1.1875-2.9688-.5938.2812,1.7812ZM118.9374,336.6572l-.5938,1.1875.3125,4.4375.5938.3125-.3125-5.9375ZM282.7186,408.8759l-5.9375.9062,1.1875,4.1562-.4865,1.1179-.9114-.3909-.3066.7168.4675.2004-.175,1.6008-.2285.5253,11.6276-5.2615-3.7683-1.4777-1.4688-2.0938ZM121.9061,304.8447l.3125,2.0938,1.1875-6.5625.875-.875.9062-4.75,4.0449-12.3892-1.1975-.4514-.1911.6531-1.1875,4.75-1.7812,4.1562-.5938,3.5625-.5938,1.1875-.5938-1.1875-1.1875,9.8125Z"/>
  <polygon class="cls-2" points="439.1528 465.0985 703.4263 498.7952 482.6636 349.6652 561.4741 288.6798 465.5566 307.255 498.7954 46.5736 350.1475 266.6221 287.2222 185.3047 306.3999 284.3345 46.5737 251.2047 263.6216 397.8253 183.8472 459.5567 284.7925 440.0079 251.2046 703.4265 398.3076 485.6645 458.0991 562.9318 439.1528 465.0985"/>
  <path class="cls-1" d="M337.6185,296.6776c9.4125-4.2592,19.6002-6.7889,30.0529-7.4097l-80.4493-103.9631,50.3964,111.3729ZM561.4741,288.6797l-111.3728,50.3964c4.2592,9.4125,6.7889,19.6002,7.4097,30.0528l103.9631-80.4492ZM377.6498,458.9686l80.4493,103.9632-50.3965-111.3728c-9.4125,4.2592-19.6001,6.7889-30.0528,7.4096ZM183.847,459.5567l111.3729-50.3965c-4.2592-9.4125-6.7889-19.6002-7.4097-30.0528l-103.9632,80.4493Z"/>
  <path class="cls-1" d="M458.4407,333.302c-9.8501-20.7076-27.1606-37.8987-49.9448-47.1658l90.2993-239.5627-161.7827,239.4926c-23.7183,9.6093-43.5088,28.7103-53.2466,54.5447L46.5735,251.2048l239.3701,161.6998c9.9834,22.3193,28.5229,40.803,53.2095,50.1083.7822.2949,1.5659.5781,2.3511.851l-90.2993,239.5626,165.6523-245.2217c19.8779-10.4388,36.1558-27.9175,44.6978-50.5792l241.8716,91.1696-244.9858-165.4933ZM452.198,404.0986c-16.5581,43.9272-65.5903,66.1146-109.5176,49.5569s-66.1147-65.5904-49.5571-109.5176c16.5576-43.9272,65.5903-66.1146,109.5176-49.5569,43.9272,16.5577,66.1147,65.5904,49.5571,109.5176Z"/>
  <rect class="cls-1" x="285.1606" y="372.8682" width="175" height="2.5" transform="translate(425.7026 -151.2644) rotate(50.6531)"/>
  <rect class="cls-1" x="285.1606" y="372.8682" width="175" height="2.5" transform="translate(898.0432 427.1604) rotate(140.6532)"/>
  <rect class="cls-1" x="285.1606" y="372.8682" width="175" height="2.5" transform="translate(-55.813 65.491) rotate(-9.3468)"/>
  <rect class="cls-1" x="285.1606" y="372.8682" width="175" height="2.5" transform="translate(681.2878 -54.3553) rotate(80.6532)"/>
  <rect class="cls-1" x="285.1606" y="372.8682" width="175" height="2.5" transform="translate(155.9051 -107.3975) rotate(20.6532)"/>
  <rect class="cls-1" x="285.1606" y="372.8682" width="175" height="2.5" transform="translate(854.1763 157.3627) rotate(110.6532)"/>
  <circle class="cls-1" cx="372.6606" cy="374.1183" r="12.5"/>
</svg>